<?xml version="1.0" encoding="utf-8"?>
<!-- Generator: Adobe Illustrator 14.0.0, SVG Export Plug-In . SVG Version: 6.00 Build 43363)  -->
<!DOCTYPE svg PUBLIC "-//W3C//DTD SVG 1.1//EN" "http://www.w3.org/Graphics/SVG/1.1/DTD/svg11.dtd">
<svg version="1.1"
	 id="BoA" xmlns:dc="http://purl.org/dc/elements/1.1/" xmlns:cc="http://creativecommons.org/ns#" xmlns:rdf="http://www.w3.org/1999/02/22-rdf-syntax-ns#" xmlns:sodipodi="http://sodipodi.sourceforge.net/DTD/sodipodi-0.dtd" xmlns:svg="http://www.w3.org/2000/svg" xmlns:inkscape="http://www.inkscape.org/namespaces/inkscape"
	 xmlns="http://www.w3.org/2000/svg" xmlns:xlink="http://www.w3.org/1999/xlink" x="0px" y="0px" width="400px" height="300px"
	 viewBox="0 0 400 300" enable-background="new 0 0 400 300" xml:space="preserve">
<path id="path7" fill="#0067B1" d="M175.427,161.684c5.126,1.993,10.253,4.131,15.239,6.551
	c-15.951,6.412-31.475,14.103-46.145,22.934c-4.985-2.563-10.112-5.127-15.238-7.406
	C144.094,175.215,159.476,167.809,175.427,161.684L175.427,161.684L175.427,161.684z"/>
<path id="path9" fill="#0067B1" d="M156.341,154.988c-16.522,5.271-32.475,12.104-47.713,20.365
	c4.843,1.853,9.685,3.705,14.385,5.698c14.67-8.688,30.193-15.95,46.288-21.646C165.028,157.837,160.757,156.271,156.341,154.988
	L156.341,154.988L156.341,154.988z"/>
<path id="path11" fill="#EE2A24" d="M276.404,186.324c0.285,0.853,0.996,1.138,1.709,1.138c0.426,0,0.854,0,1.139-0.285
	c0.143-0.143,0.287-0.427,0.287-0.712c0-0.57-0.43-0.854-1-0.854l-0.995-0.287c-0.287-0.141-0.714-0.141-0.998-0.426
	c-0.285-0.285-0.427-0.713-0.427-1.141c0-1.138,0.997-1.564,1.994-1.564c0.854,0,1.709,0.429,1.994,1.424l-0.713,0.143
	c0-0.57-0.711-0.996-1.425-0.996c-0.426,0-1.141,0.283-1.141,0.854c0,0.711,0.428,0.854,1,0.998l0.854,0.143
	c0.426,0.143,0.854,0.283,1.139,0.426c0.285,0.43,0.426,0.713,0.426,1.283c0,0.428-0.141,0.997-0.568,1.282
	c-0.428,0.286-0.996,0.428-1.563,0.428c-1.14,0-1.853-0.571-2.277-1.71L276.404,186.324L276.404,186.324L276.404,186.324z"/>
<polygon id="polygon13" fill="#EE2A24" points="281.959,183.047 281.959,183.047 281.959,188.032 281.959,188.032 281.393,188.032 
	281.393,182.335 282.386,182.335 284.239,186.893 285.807,182.335 286.943,182.335 286.943,188.032 286.232,188.032 
	286.232,183.047 286.232,183.047 284.381,188.032 283.813,188.032 "/>
<path id="path15" fill="#EE2A24" d="M210.034,160.971c-13.104-6.268-26.632-11.537-40.446-15.811
	c-4.984,1.425-9.828,2.99-14.528,4.559c14.242,4.271,28.199,9.686,41.588,16.094C201.063,164.104,205.479,162.538,210.034,160.971
	L210.034,160.971z"/>
<path id="path17" fill="#EE2A24" d="M231.256,154.705c-13.244-5.839-27.058-10.681-41.159-14.526
	c-4.558,0.854-8.974,1.851-13.388,2.989c13.957,4.132,27.63,9.257,40.732,15.525C222,157.27,226.698,155.844,231.256,154.705
	L231.256,154.705z"/>
<path id="path19" fill="#EE2A24" d="M265.438,166.1c-33.472,11.252-64.804,27.346-93.146,47.426
	c7.121,4.416,13.957,8.975,20.65,13.957c26.775-21.221,56.542-38.881,88.447-52.271C276.121,171.938,270.852,168.947,265.438,166.1
	L265.438,166.1z"/>
<path id="path21" fill="#EE2A24" d="M242.363,155.275c-34.748,9.113-67.364,23.928-96.848,43.58
	c6.553,3.272,13.104,6.691,19.513,10.395c28.914-19.938,60.958-35.605,95.141-45.859
	C254.328,160.545,248.491,157.695,242.363,155.275L242.363,155.275L242.363,155.275z"/>
<path id="path23" fill="#0067B1" d="M146.798,87.336c8.403,0,12.676,6.268,12.676,14.67c0,8.689-4.132,14.813-12.676,14.813
	c-8.688,0-12.676-6.124-12.676-14.813C134.122,93.604,138.396,87.336,146.798,87.336L146.798,87.336z M146.798,111.124
	c2.279,0,3.276-1.997,3.276-9.117c0-6.552-0.712-8.972-3.276-8.972c-2.563,0-3.275,2.42-3.275,8.972
	C143.522,109.127,144.519,111.124,146.798,111.124L146.798,111.124z"/>
<path id="path25" fill="#0067B1" d="M165.315,94.458h-3.704v-6.267h3.704v-3.133c0-6.978,3.419-9.541,9.399-9.541
	c1.709,0,3.132,0.285,4.559,0.426v6.979c-0.429-0.143-1.142-0.284-1.708-0.284c-2.424,0-3.276,0.997-3.276,2.704v2.851h4.985v6.267
	h-4.985v21.791h-8.972V94.458H165.315L165.315,94.458z"/>
<path id="path27" fill="#0067B1" d="M59.492,96.026c0-1.71-0.713-2.849-2.279-2.849c-2.279,0-2.988,1.995-2.988,3.702l-7.978-1.709
	c0.998-5.414,6.124-7.69,11.25-7.69c5.412,0,11.108,2.276,11.108,8.546v15.667c0,3.132,0.429,4.129,0.854,4.557H60.06
	c-0.142-0.854-0.285-2.135-0.285-2.563c-1.565,1.566-4.272,3.133-6.836,3.133c-4.557,0-7.977-3.133-7.832-8.261
	c0.142-7.265,8.402-9.541,14.383-10.253v-2.279L59.492,96.026L59.492,96.026z M59.492,102.719c-3.133,0.285-5.555,1.567-5.555,5.127
	c0,1.992,0.998,2.989,2.707,2.989c0.998,0,2.139-0.712,2.849-1.709L59.492,102.719L59.492,102.719z"/>
<path id="path29" fill="#0067B1" d="M82.992,96.167v20.082h-9.116V88.191h8.832l0.142,2.85l0,0c1.993-1.994,4.414-3.56,7.977-3.56
	c3.988,0,6.267,2.707,6.267,6.551v22.217H87.98V96.88c0-1.566-0.571-2.422-2.138-2.422C84.846,94.458,83.846,95.029,82.992,96.167
	L82.992,96.167z"/>
<polygon id="polygon31" fill="#0067B1" points="102.646,76.371 102.646,76.371 111.764,76.371 111.764,96.595 111.902,96.595 
	118.6,88.193 127.57,88.193 120.023,96.738 127.57,116.249 118.171,116.249 113.757,104 113.614,104 111.764,106.138 
	111.764,116.249 102.646,116.249 "/>
<path id="path33" fill="#0067B1" d="M35.422,95.455c4.273,1.425,7.405,4.985,7.405,10.114c0,6.836-5.411,10.681-13.103,10.681
	h-15.24V76.373h15.667c7.121,0,11.679,4.273,11.679,9.685c0,5.268-3.562,7.977-6.409,9.115L35.422,95.455L35.422,95.455z
	 M24.172,108.843h3.702c2.278,0,5.126-0.997,5.126-4.985c0-2.991-1.852-4.985-5.126-4.985h-3.702V108.843L24.172,108.843z
	 M24.172,92.179h3.417c3.56,0,4.985-1.994,4.985-4.272c0-3.846-2.563-4.415-4.842-4.415h-3.561L24.172,92.179L24.172,92.179z"/>
<path id="path35" fill="#0067B1" d="M363.144,96.026c0-1.71-0.854-2.849-2.423-2.849c-2.135,0-2.847,1.995-2.987,3.702L349.9,95.17
	c0.997-5.414,6.124-7.69,11.252-7.69c5.411,0,11.106,2.276,11.106,8.546v15.667c0,3.132,0.427,4.129,0.712,4.557h-9.256
	c-0.144-0.854-0.287-2.135-0.287-2.563c-1.564,1.566-4.271,3.133-6.979,3.133c-4.415,0-7.978-3.133-7.833-8.261
	c0.286-7.265,8.546-9.541,14.526-10.253L363.144,96.026L363.144,96.026z M363.144,102.719c-3.136,0.285-5.555,1.567-5.555,5.127
	c0,1.992,0.997,2.989,2.563,2.989c1.138,0,2.135-0.712,2.986-1.709v-6.407H363.144L363.144,102.719z"/>
<path id="path37" fill="#0067B1" d="M269.854,104.144c-0.144,2.422,0.569,6.693,4.273,6.693c2.135,0,3.986-1.709,4.414-3.845
	l6.125,2.136c-0.428,1.284-3.134,7.692-11.252,7.692c-8.689,0-12.678-6.98-12.678-14.813c0-7.975,4.273-14.67,12.533-14.67
	c8.688,0,11.818,7.549,11.818,14.955v1.851L269.854,104.144L269.854,104.144L269.854,104.144z M276.689,98.731
	c0-2.564-0.285-5.699-3.418-5.699c-2.563,0-3.563,3.133-3.42,5.699H276.689L276.689,98.731z"/>
<polygon id="polygon39" fill="#0067B1" points="309.447,88.193 309.447,88.193 318.564,88.193 318.564,116.249 309.447,116.249 "/>
<polygon id="polygon41" fill="#0067B1" points="309.447,76.371 309.447,76.371 318.564,76.371 318.564,84.489 309.447,84.489 "/>
<path id="path43" fill="#0067B1" d="M338.644,98.589c0-1.138,0-2.563-0.426-3.561c-0.428-1.14-1.138-1.994-2.563-1.994
	c-2.989,0-3.419,3.703-3.419,9.401c0,6.268,0.997,8.403,3.419,8.403c3.132,0,3.42-3.276,3.42-5.412l7.12,0.997
	c-0.713,6.836-4.7,10.397-11.252,10.397c-8.119,0-12.394-7.121-12.394-14.1c0-7.691,4.272-15.383,12.819-15.383
	c9.543,0,11.105,8.405,11.105,11.25h-7.833v0.002H338.644z"/>
<path id="path45" fill="#0067B1" d="M195.08,76.371h13.245l8.403,39.878h-9.686l-1.564-8.116h-9.26l-1.851,8.116h-8.688
	L195.08,76.371L195.08,76.371z M197.5,101.153h6.555l-2.848-16.236h-0.287L197.5,101.153L197.5,101.153z"/>
<path id="path47" fill="#0067B1" d="M288.795,88.193h8.83v3.703h0.143c1.852-2.991,5.271-4.414,8.83-4.414v9.115
	c-1.139-0.428-2.136-0.712-3.701-0.712c-2.422,0-3.986,0.853-4.984,2.135v18.23h-9.115L288.795,88.193L288.795,88.193z"/>
<path id="path49" fill="#0067B1" d="M242.791,96.167v20.082h-8.973V97.021c0-1.566-0.426-2.563-2.135-2.563
	c-0.854,0-2.279,0.713-2.992,1.709v20.082h-8.973V88.191h8.831l0.142,2.85l0,0c1.998-1.851,4.846-3.56,8.121-3.56
	c2.849,0,4.698,1.566,5.554,3.702h0.143c1.565-1.71,4.273-3.702,7.979-3.702c3.845,0,6.406,2.42,6.406,6.408v22.36h-8.973V97.021
	c0-1.566-0.427-2.563-2.135-2.563C244.645,94.458,243.363,95.455,242.791,96.167L242.791,96.167z"/>
<path id="path51" fill="#0067B1" d="M376.673,112.975c0-2.138,1.71-3.845,3.988-3.845c2.135,0,3.845,1.709,3.845,3.845
	c0,2.136-1.71,3.845-3.845,3.845C378.383,116.82,376.673,115.11,376.673,112.975L376.673,112.975z M377.385,112.975
	c0,1.71,1.426,2.991,3.276,2.991c1.707,0,3.132-1.281,3.132-2.991c0-1.708-1.425-3.135-3.132-3.135
	C378.811,109.84,377.385,111.265,377.385,112.975L377.385,112.975z"/>
<path id="path53" fill="#0067B1" d="M382.512,115.11H381.8l-1.282-1.995h-0.713v1.995h-0.713v-4.273h1.995
	c0.285,0,0.713,0,0.997,0.144c0.428,0.285,0.571,0.569,0.571,0.997c0,0.854-0.713,1.138-1.428,1.138L382.512,115.11L382.512,115.11
	L382.512,115.11z M380.52,112.547c0.569,0,1.425,0.141,1.425-0.569c0-0.571-0.43-0.712-0.997-0.712h-1.141v1.282L380.52,112.547
	L380.52,112.547L380.52,112.547z"/>
</svg>
