<?xml version="1.0" encoding="utf-8"?>
<!-- Generator: Adobe Illustrator 14.0.0, SVG Export Plug-In . SVG Version: 6.00 Build 43363)  -->
<!DOCTYPE svg PUBLIC "-//W3C//DTD SVG 1.1//EN" "http://www.w3.org/Graphics/SVG/1.1/DTD/svg11.dtd">
<svg version="1.1" id="Layer_1" xmlns="http://www.w3.org/2000/svg" xmlns:xlink="http://www.w3.org/1999/xlink" x="0px" y="0px"
	 width="350px" height="250px" viewBox="2 -2.5 350 250" enable-background="new 2 -2.5 350 250" xml:space="preserve">
<g>
	<path fill-rule="evenodd" clip-rule="evenodd" fill="#FDBD10" d="M184.328,42.552c14.216,0,27.22,5.161,37.666,13.899
		c2.2,2.057,1.813,3.607-0.367,3.861c-31.24,6.345-62.479,15.171-93.717,25.466c-3.398,0.959-1.829-5.829-0.438-8.041
		C139.67,56.661,160.817,42.552,184.328,42.552L184.328,42.552z M239.171,148.666c-11.529,24.108-34.26,40.729-59.774,40.729
		c-12.268,0-23.633-3.843-33.23-10.512c-2.604-2.101-1.841-3.978,0.605-4.887c27.169-10.871,56-20.633,87.6-28.551
		C238.004,144.52,240.782,145.129,239.171,148.666L239.171,148.666z"/>
	<path fill-rule="evenodd" clip-rule="evenodd" fill="#FFFFFF" d="M204.39,180.405c12.004-8.675,18.913-16.68,21.306-24.114
		c1.439-5.036,5.706-3.849,4.58-0.051C224.638,170.693,213.288,176.812,204.39,180.405L204.39,180.405z"/>
	<path fill-rule="evenodd" clip-rule="evenodd" fill="#FFFFFF" d="M153.464,53.901c-6.344,4.013-13.037,7.354-18.917,22.701
		c-0.807,3.094,2.7,4,3.429,1.301C139.875,68.83,145.574,61.082,153.464,53.901L153.464,53.901z"/>
	<path fill-rule="evenodd" clip-rule="evenodd" fill="#FFFFFF" d="M184.203,46.099c28.209,1.684,32.8,10.808,18.563,15.016
		C207.969,53.094,200.44,48.444,184.203,46.099L184.203,46.099z"/>
	<polygon fill="#EC1C24" points="256.664,155.271 256.664,152.759 255.514,152.759 255.514,152.247 258.593,152.247 
		258.593,152.759 257.446,152.759 257.446,155.271 256.664,155.271 	"/>
	<polygon fill="#EC1C24" points="259.086,155.271 259.086,152.247 260.259,152.247 260.961,154.312 261.656,152.247 262.83,152.247 
		262.83,155.271 262.102,155.271 262.102,152.892 261.334,155.271 260.579,155.271 259.813,152.892 259.813,155.271 
		259.086,155.271 	"/>
	<path fill-rule="evenodd" clip-rule="evenodd" fill="#EC1C24" d="M117.636,135.544v44.214c3.385-1.411,6.77-2.82,10.154-4.232
		c2.415-0.841,3.202-2.746,2.962-5.712l0.211-14.386c3.949,4.021,7.898,8.041,11.847,12.06c5.359,5.602,14.167-4.7,10.155-9.097
		l-9.308-10.576c3.103-5.643,6.206-11.283,9.308-16.924c3.385-5.644-5.923-11.566-10.155-5.713l-12.315,19.885l0.046-15.442
		L117.636,135.544L117.636,135.544z"/>
	<path fill-rule="evenodd" clip-rule="evenodd" fill="#EC1C24" d="M156.231,125.164c0,0.829-0.165,40.117-0.165,40.117
		c2.873-1.217,5.746-2.433,8.62-3.647c3.562-1.628,4.901-4.058,4.973-7.294l0.332-39.784c-3.094,1.271-6.189,2.542-9.283,3.813
		C157.668,120.053,156.263,122.154,156.231,125.164L156.231,125.164z"/>
	<path fill-rule="evenodd" clip-rule="evenodd" fill="#EC1C24" d="M174.133,157.985l-0.331-43.926
		c2.432-0.884,4.862-1.769,7.294-2.653c2.773-1.167,4.979,0.328,5.967,1.99l12.433,13.593c-0.054-5.084-0.11-10.167-0.166-15.251
		c-0.166-3.094,2.873-5.303,6.632-6.629l5.305-1.659l0.165,40.779c0.018,4.615-8.297,7.076-10.775,3.978
		c-1.705-2.323-14.089-15.746-14.089-15.746l-0.498,17.073C185.819,154.381,182.173,155.957,174.133,157.985L174.133,157.985z"/>
	<path fill-rule="evenodd" clip-rule="evenodd" fill="#EC1C24" d="M232.979,116.545l18.234-4.476v18.069
		c-1.824,6.963-7.46,10.72-17.405,12.268c-12.709,1.215-20.443-5.968-20.224-19.561c2.486-19.338,13.373-27.848,32.655-25.528
		c9.615,1.437,6.134,12.267-1.988,10.609c-10.638-2.052-17.766,3.267-18.234,12.929c0.44,9.781,7.073,13.813,13.924,8.123
		l0.166-4.31c-4.282,0.995-7.433,0.774-7.293-2.818C232.814,121.85,233.312,116.71,232.979,116.545L232.979,116.545z"/>
	<path fill-rule="evenodd" clip-rule="evenodd" fill="#EC1C24" d="M191.149,87.077l11.834-2.991v12.075
		c-1.184,4.652-4.841,7.164-11.297,8.197c-8.248,0.812-13.269-3.988-13.125-13.072c1.613-12.924,8.679-18.611,21.193-17.06
		c6.241,0.96,3.981,8.198-1.29,7.09c-6.904-1.372-11.53,2.183-11.835,8.64c0.289,6.535,4.591,9.232,9.038,5.429l0.107-2.881
		c-2.779,0.665-4.823,0.517-4.734-1.883C191.041,90.623,191.364,87.188,191.149,87.077L191.149,87.077z"/>
	<path fill-rule="evenodd" clip-rule="evenodd" fill="#EC1C24" d="M118.287,115.543l-0.403,8.576
		c3.162-1.182,6.474-2.912,6.442-7.302C124.373,114.577,121.672,113.822,118.287,115.543L118.287,115.543z M118.258,103.415
		l-0.374,8.006c2.929-1.104,5.997-2.719,5.967-6.817C123.894,102.513,121.393,101.809,118.258,103.415L118.258,103.415z
		 M110.761,100.796c0.119,0.715,0.119,32.962,0.119,32.962l15.827-7.496c7.378-3.967,7.378-15.866,1.19-15.231
		c5.95-6.178,2.142-16.908-3.688-14.994L110.761,100.796L110.761,100.796z"/>
	<path fill-rule="evenodd" clip-rule="evenodd" fill="#EC1C24" d="M133.251,94.37c0,0.715-0.119,20.348-0.119,20.348
		c-0.04,5.196,5.632,7.299,10.591,6.308c6.624-1.349,10.272-5.434,10.59-11.543c0.04-7.377,0.079-13.685,0.119-21.063
		c-0.119-4.005-7.616-2.577-7.854,1.31c0.079,6.822,0.159,13.05,0.238,19.872c-0.516,4.958-5.911,5.156-5.831,0.952
		c0-5.791,0-11.582,0-17.373C141.065,89.153,133.211,89.748,133.251,94.37L133.251,94.37z"/>
	<path fill-rule="evenodd" clip-rule="evenodd" fill="#EC1C24" d="M157.05,114.718l-0.357-30.105l11.782-3.688
		c7.338-2.261,12.573,7.774,4.403,15.945c1.865,2.103,3.729,4.204,5.592,6.308c2.736,3.49-2.975,8.289-6.069,5.474l-7.496-7.022
		c-0.119,2.341-0.239,4.68-0.357,7.022C164.309,112.161,161.811,113.787,157.05,114.718L157.05,114.718z M164.666,87.468
		c6.388-3.094,7.3,5.354-0.119,8.925C164.586,93.537,164.627,90.324,164.666,87.468L164.666,87.468z"/>
	<path fill-rule="evenodd" clip-rule="evenodd" fill="#EC1C24" d="M223.882,96.393l-0.206-29.113l12.162-2.008
		c7.575-1.215,12.918,9.164,4.453,15.975c1.909,2.275,3.819,4.551,5.73,6.827c2.801,3.73-3.111,7.611-6.285,4.484l-7.689-7.767
		c-0.135,2.243-0.271,4.487-0.405,6.731C231.378,94.881,228.794,96.122,223.882,96.393L223.882,96.393z M231.878,71.089
		c6.601-2.146,7.496,6.13-0.171,8.601C231.764,76.938,231.821,73.842,231.878,71.089L231.878,71.089z"/>
	<path fill-rule="evenodd" clip-rule="evenodd" fill="#EC1C24" d="M204.961,71.243l0.251,29.453
		c4.596-0.919,7.687-1.587,12.282-2.507c4.764-1.169,4.972-4.345,4.764-7.896l-9.4,2.257v-6.266c8.16-1.352,8.867-2.433,8.521-7.144
		l-8.897,1.629c0-1.546,0-3.343,0-4.889c8.229-1.587,9.692-2.506,9.65-8.146L204.961,71.243L204.961,71.243z"/>
	<path fill-rule="evenodd" clip-rule="evenodd" fill="#0066B2" d="M180.007,33.853c7.975,0,15.712,1.062,23.085,3.044l-0.525,0.886
		c-17.729-3.776-43.138,1.867-54.361,7.193c-27.926,11.943-47.715,40.906-47.715,74.598c0,18.18,5.762,34.981,15.454,48.477v14.629
		l9.334-3.812c13.56,13.118,31.604,21.144,51.366,21.144c31.244,0,58.191-20.051,69.91-48.593
		c4.717,2.667,11.078,6.304,16.264,9.276c-13.806,32.439-45.754,55.254-82.81,55.254c-49.619,0-90.087-40.9-90.087-91.049
		C89.92,74.753,130.388,33.853,180.007,33.853L180.007,33.853z"/>
</g>
</svg>
