<?xml version="1.0" encoding="utf-8"?>
<!-- Generator: Adobe Illustrator 23.0.1, SVG Export Plug-In . SVG Version: 6.00 Build 0)  -->
<svg version="1.1" id="Layer_1" xmlns="http://www.w3.org/2000/svg" xmlns:xlink="http://www.w3.org/1999/xlink" x="0px" y="0px"
	 viewBox="0 0 400 300" style="enable-background:new 0 0 400 300;" xml:space="preserve">
<style type="text/css">
	.st0{fill:#F04E44;}
</style>
<g>
	<path class="st0" d="M222.1,112.9l-0.3-0.2c-40,1.6-77.6,14.1-102.9,29.7c-1.1-1.6-2.3-3.2-3.6-4.8c22.7-14,54.3-25.7,81.2-29.2
		l-0.4-0.2c-28.8,2.9-57,11.7-77.1,22.5c-0.8-1.4-1.8-2.9-2.9-4.3c17.5-10.1,40.1-18.2,61.7-22.2l-0.3-0.2
		c-25.2,3.8-47.9,10.8-63.6,19.8c-1.1-1.3-2.4-2.5-3.7-3.7c1.6-1,3.4-2,5.1-2.9c0.8,0.8,1.5,1.6,2.3,2.5l0.9-0.8
		c-0.5-0.8-1-1.6-1.6-2.4c12.9-6.6,29-11.8,41.4-14.2L158,102c-12.8,2.3-29.7,6.1-42.7,12.3C104.6,101.7,82.9,93,51.4,86.9l-0.3,0.2
		c28.5,6.5,49.4,16.2,62.2,28.2c-1.9,1-3.6,2-5.3,3C92.9,105.9,66.2,94.7,31,89.5l-0.3,0.2c31.1,5.6,57.1,16.9,74.6,30.6
		c-1.7,1.3-3.3,2.7-4.6,4.2C81.2,110.7,50.5,99.1,9.3,93.8L9,94c34,5.4,69.5,17.4,93.5,37.7c-3.2,2.7-5.7,5.6-7.5,8.5l1,1.1
		c2.6-2.5,5.6-5,8.9-7.4c1.3,1.1,2.5,2.2,3.7,3.4c-8.3,5.7-14.2,11.8-16.9,17.7l1.1,0.9c4.6-5.3,11-10.6,18.6-15.6
		c1.4,1.5,2.7,3,4,4.6c-15.5,10.2-25.8,21.5-28.1,31.9l1.2,0.8c6.5-11,17.1-20.7,29.6-29.2c2,2.7,3.8,5.5,5.3,8.6l1.1-0.7
		c-0.6-3.2-1.7-6.5-3.4-9.7C152.8,126.3,195.9,114.5,222.1,112.9z M106.2,128.8c-1.2-1.1-2.6-2.1-3.9-3.1c1.5-1.2,3.2-2.5,5-3.7
		c1.4,1.2,2.7,2.3,3.9,3.5C109.5,126.5,107.8,127.6,106.2,128.8z M108.9,131c1.6-1.1,3.2-2.1,4.9-3.2c1.3,1.3,2.4,2.5,3.5,3.9
		c-1.6,0.9-3.2,1.9-4.8,2.8C111.4,133.4,110.2,132.2,108.9,131z"/>
	<path d="M198.8,175.3h6.5v6.1h-6.5V175.3z M198.9,212.5h6.3v-26.1h-6.3V212.5z M263.7,212.5h6.3v-38h-6.3V212.5z M294,190.8h-13.9
		v-16.3h-3.2v38.1h3.2v-19H294v19h3.2v-38.1H294V190.8z M321.4,200.5h-15.1c0,9.7,6.3,9.8,7.5,9.8c1.7,0,4.2-0.8,5.7-2.2l0.2,3.3
		c-1.3,0.7-3,1.5-6.1,1.5c-10.3,0-10.6-10.8-10.6-13.4c0-8.9,3.4-13.4,9.2-13.4C318.6,186.1,321.4,191.2,321.4,200.5z M306.3,197.7
		H318c0-5.6-2.3-8.9-5.8-8.9C308.2,188.8,306.3,192.6,306.3,197.7z M350,212.5h3.1v-38H350V212.5z M364.2,180.3l-3.1,0.9v5.2h-3.9
		v2.6h3.9v18c0,2.9,0.9,5.9,5.5,5.9c1.9,0,2.7-0.2,3-0.4v-2.7c-0.5,0.1-1.1,0.4-2.3,0.4c-2.8,0-3-2-3-4.1V189h5.4v-2.6h-5.4V180.3z
		 M148.7,208c0,1.9,0.2,3.6,0.3,4.6h-5.7c-0.3-1-0.4-2.3-0.4-3h-0.1c-0.8,0.9-3.1,3.4-7.3,3.4c-4.6,0-7.9-2.8-7.9-7.7
		c0-7.1,6.3-8.9,12.6-8.9h2.4v-1c0-2.6-1.3-5-4.9-5c-3.2,0-6,1.5-7.2,2.5l-0.4-5.1c1.8-0.8,4.2-1.9,7.9-1.9c7.8,0,10.4,3.9,10.4,9.9
		V208z M142.8,199.8h-2.3c-3,0-6.9,0.9-6.9,4.9c0,2.4,1.6,4,4,4c3.4,0,5.1-2.8,5.1-6.1V199.8z M257.4,208c0,1.9,0.2,3.6,0.4,4.6
		h-5.7c-0.3-1-0.4-2.3-0.4-3h-0.1c-0.8,0.9-3.1,3.4-7.3,3.4c-4.6,0-7.9-2.8-7.9-7.7c0-7.1,6.3-8.9,12.6-8.9h2.4v-1
		c0-2.6-1.3-5-4.9-5c-3.1,0-5.9,1.5-7.2,2.5l-0.4-5.1c1.8-0.8,4.2-1.9,7.9-1.9c7.9,0,10.4,3.9,10.4,9.9V208z M251.6,199.8
		L251.6,199.8h-2.3c-3,0-6.8,0.9-6.8,4.9c0,2.4,1.6,4,4,4c3.4,0,5.1-2.8,5.1-6.1V199.8z M160.7,190L160.7,190
		c-0.1-1.6-0.2-2-0.3-3.6h-5.7c0.2,1.2,0.2,2.7,0.2,4.4v21.8h6.3v-14.3c0-4.9,2.9-6.5,5.4-6.5c0.9,0,1.5,0.1,1.8,0.2v-5.8
		c-0.4-0.1-0.7-0.1-1.1-0.1C162.4,186,161.2,188.9,160.7,190z M192.5,208.1c0,1.9,0.1,3.5,0.2,4.5h-5.9c-0.1-0.7-0.2-2.1-0.2-3.4
		h-0.1c-0.4,0.7-2,3.8-7,3.8c-6.5,0-9.2-6.2-9.2-13.5c0-8.5,3.2-13.5,9.7-13.5c4.2,0,5.7,2.5,6.1,3.1h0.1v-14.6h6.3V208.1z
		 M186.2,199.4c0-5.1-1.4-8.8-4.9-8.8c-3.5,0-4.8,3.4-4.8,8.6c0,6.1,1,9.1,4.6,9.1C185,208.4,186.2,204.3,186.2,199.4z M117.3,182
		c4.2,0,6.1,1.5,6.7,1.8l0.3-5.9c-0.8-0.3-3.3-1.3-7.9-1.3c-10.6,0-16.1,7.9-16.1,18.2c0,10.4,5.5,18.2,16.3,18.2c5,0,7-1,7.7-1.3
		l-0.4-5.9c-1.5,1.1-3.6,1.8-6.7,1.8c-5.4,0-10-3.7-10-12.9C107.3,185.7,111.9,182,117.3,182z M224.5,186c-4.7,0-6.3,2.9-6.9,3.7
		h-0.1c0-0.7-0.1-2.5-0.2-3.3h-5.9c0.2,1.2,0.2,2.7,0.2,4.4v21.8h6.3v-16.9c0-3.3,2-4.4,4-4.4c2.1,0,4,1.2,4,4.4v16.9h6.3v-17.9
		C232.4,189.5,229.9,186,224.5,186z M383.4,186.1c-4,0-5.6,1.8-6.3,2.7H377v-14.3h-3.1v38h3.1v-18.1c0-3.6,2.2-5.8,5.5-5.8
		c3.3,0,5.4,2.3,5.4,5.8v18.1h3.1v-18.8C391,190.1,388.3,186.1,383.4,186.1z M343.1,206.7c0,2,0.1,3.9,0.3,5.8h-3l-0.2-3.2h-0.1
		c-0.7,0.9-2.1,3.5-7.1,3.5c-4.9,0-7.7-3.1-7.7-7.7c0-6.7,5.7-8.4,12.4-8.4h2.2v-2.1h0c0-3.6-1.3-5.9-5.7-5.9c-3.5,0-6,2.5-6.3,2.7
		l-0.5-3.2c1.5-0.9,3.7-2.3,7.1-2.3c7.3,0,8.6,5.3,8.6,8.1V206.7z M340,199.4h-2.5v0c-5.5,0-8.9,1.6-8.9,5.7c0,2.6,1.6,5,5.1,5
		c1.4,0,6.3-0.6,6.3-7.7V199.4z"/>
</g>
</svg>
