<?xml version="1.0" encoding="utf-8"?>
<!-- Generator: Adobe Illustrator 23.0.1, SVG Export Plug-In . SVG Version: 6.00 Build 0)  -->
<svg version="1.1"
	 id="logosvg.com" xmlns:cc="http://creativecommons.org/ns#" xmlns:dc="http://purl.org/dc/elements/1.1/" xmlns:inkscape="http://www.inkscape.org/namespaces/inkscape" xmlns:rdf="http://www.w3.org/1999/02/22-rdf-syntax-ns#" xmlns:svg="http://www.w3.org/2000/svg"
	 xmlns="http://www.w3.org/2000/svg" xmlns:xlink="http://www.w3.org/1999/xlink" x="0px" y="0px" viewBox="0 0 400 300"
	 style="enable-background:new 0 0 400 300;" xml:space="preserve">
<style type="text/css">
	.st0{fill:#FFFFFF;}
	.st1{fill:#3B73B9;}
</style>
<path id="white" inkscape:connector-curvature="0" class="st0" d="M200,293.1c79.1,0,143.1-64.1,143.1-143.1S279,6.9,200,6.9
	C121,6.9,56.9,71,56.9,150S121,293.1,200,293.1"/>
<path id="blue" inkscape:connector-curvature="0" class="st1" d="M232.1,112.7c0-16.3,11-32.1,17-29.1
	C256,87.1,244,102.4,232.1,112.7 M157.2,118.7c0-13.1,12.9-37.9,20.8-35.3C187.3,86.5,170.3,111.5,157.2,118.7 M144.1,212.2
	c-5.9,0.3-9.9-3.5-9.9-9.9c0-17,23.6-33.3,41.5-42C172.5,184.1,164.5,211.3,144.1,212.2 M253.1,156.8c-13.5,0-23.8,9.9-23.8,21.8
	c0,9.9,6,17.8,13.9,17.8c2.8,0,5.6-1.6,5.6-5.1c0-5.2-6.8-6.4-6.3-14.1c0.3-5.1,5.1-8.5,9.9-8.5c9.5,0,13.9,9.2,13.9,18.7
	c-0.4,14.7-11.2,24.9-23.9,24.9c-16.7,0-27.4-15.8-27.4-32.9c0-25.4,16.7-35.3,25.4-37.7c0.1,0,22.8,4,22.1-6
	c-0.3-4.4-6.9-6.1-11.6-6.3c-5.3-0.2-10.6,1.7-10.6,1.7c-2.8-1.4-4.7-4.1-5.9-7.3c16.3-12.3,27.8-24.2,27.8-37.7
	c0-7.1-4.8-13.5-13.9-13.5c-16.3,0-28.5,20.6-28.5,39.2c0,3.2,0,6.3,0.8,9.1c-10.3,7.5-18,12.2-31.8,20.5c0-1.7,0.4-6.2,1.5-12
	c4.7-5.2,11.3-12.9,11.3-18.8c0-2.8-1.6-5.2-4.8-5.2c-7.9,0-13.8,11.9-15.4,20.2c-3.6,4.4-10.7,9.9-16.7,9.9c-4.7,0-6.3-4.4-6.7-6
	c15.1-5.2,33.7-25.8,33.7-44.4c0-4-1.6-12.7-13.5-12.7c-17.8,0-32.9,26.6-32.9,47.2c-6.4,0-8.7-6.7-8.7-11.9c0-5.2,2-10.3,2-11.9
	c0-1.6-0.8-3.6-3.2-3.6c-5.9,0-9.5,7.9-9.5,17c0.4,12.7,8.7,20.6,19.8,21.4c1.6,7.5,8.3,14.7,16.6,14.7c5.2,0,11.5-1.6,15.9-5.5
	c-0.4,2.8-0.8,5.2-1.2,7.5c-17.5,9.1-30.1,15.5-41.6,25.8c-9.1,8.3-14.3,19.4-14.3,28.1c0,11.9,7.5,23,23,23
	c18.2,0,32.1-14.7,38.9-34.9c3.2-9.5,4.4-23.3,5.2-36.1c18.2-10.3,26.9-16.3,36.4-23c1.2,2,2.4,3.6,4,4.7
	c-8.3,4.4-28.1,16.7-28.1,45.6c0,20.6,13.9,43.6,41.2,43.6c22.6,0,38-18.6,38-36.5C279.7,171.8,270.6,156.8,253.1,156.8
	 M321.3,190.8c-0.1,0.1-0.3,0.3-0.7,0.1c-0.4-0.1-0.4-0.3-0.4-0.5c0-0.2,4.8-14.3,4.7-30.5c0-17.5-7.1-28.2-16.2-28.2
	c-5.6,0-9.5,4-9.5,9.9c0,10.7,13.1,11.5,13.1,34.9c0,9.5-2,18.6-5.1,28.5c-14.7,49.5-61.5,72.5-107,72.5c-21,0-36-4.3-40.4-6.3
	c-0.2-0.1-0.4-0.4-0.2-0.8c0.1-0.3,0.4-0.5,0.6-0.4c1.8,0.7,14.6,4.7,30.5,4.7c17.4,0,27.8-7.1,27.8-15.9c0-5.5-4.4-9.9-9.9-9.9
	c-10.7,0-11.5,13.5-34.5,13.5c-9.9,0-18.6-2-28.9-5.2C95.7,242.4,72.3,196,72.3,150c0-22.4,6.3-40.3,6.4-40.4
	c0.1-0.1,0.4-0.2,0.7-0.1c0.4,0.1,0.4,0.4,0.4,0.5c-0.6,1.9-4.7,14.6-4.7,30.5c0,17.5,7.1,27.8,16.3,27.8c5.1,0,9.5-4,9.5-9.5
	c0-10.7-13.1-11.9-13.1-34.9c0-9.9,2-18.6,5.2-28.9C108,45.7,154.4,22.7,200,22.4c21.2-0.2,39.7,6.2,40.4,6.7
	c0.1,0.1,0.2,0.4,0.1,0.7c-0.2,0.4-0.4,0.4-0.5,0.4c-0.2,0-12.3-5.1-30.5-5.1c-17,0-27.8,7.1-27.8,16.3c0,5.1,4,9.5,9.9,9.5
	c10.7,0,11.5-13.1,34.5-13.1c9.9,0,18.6,2,28.9,5.1c49.6,15.1,72.1,61.8,72.5,107C327.9,173.2,321.3,190.7,321.3,190.8 M200,13.6
	c-75.3,0-136.4,61-136.4,136.4c0,75.3,61,136.4,136.4,136.4c75.3,0,136.4-61,136.4-136.4C336.4,75.1,275.3,13.6,200,13.6 M200,293.1
	c-78.9,0-143.1-63.8-143.1-143.1C56.9,71.1,121.1,6.9,200,6.9c78.9,0,143.1,64.2,143.1,143.1C343.1,229.3,278.9,293.1,200,293.1"/>
</svg>
