<?xml version="1.0" encoding="utf-8"?>
<!-- Generator: Adobe Illustrator 14.0.0, SVG Export Plug-In . SVG Version: 6.00 Build 43363)  -->
<!DOCTYPE svg PUBLIC "-//W3C//DTD SVG 1.1//EN" "http://www.w3.org/Graphics/SVG/1.1/DTD/svg11.dtd">
<svg version="1.1"
	 id="honda" xmlns:rdf="http://www.w3.org/1999/02/22-rdf-syntax-ns#" xmlns:cc="http://web.resource.org/cc/" xmlns:dc="http://purl.org/dc/elements/1.1/"
	 xmlns="http://www.w3.org/2000/svg" xmlns:xlink="http://www.w3.org/1999/xlink" x="0px" y="0px" width="400px" height="300px"
	 viewBox="0 0 400 300" enable-background="new 0 0 400 300" xml:space="preserve">
<polygon fill="#161413" points="48.357,166.447 55.669,166.447 55.669,182.348 58.228,182.348 58.228,166.447 65.536,166.447 
	65.536,164.436 48.357,164.436 "/>
<path fill="#161413" d="M75.038,169.005c-2.375,0-4.385,0.915-5.482,2.74v-7.31h-2.559v17.912h2.559v-6.033
	c0-4.021,2.558-5.664,5.117-5.664c2.376,0,3.839,1.277,3.839,4.57v7.127h2.557v-7.313C81.069,170.834,78.512,169.005,75.038,169.005
	z"/>
<path fill="#161413" d="M91.48,169.014c-4.57,0-7.493,2.561-7.493,7.127c0,4.023,2.742,6.582,7.493,6.582
	c3.106,0,6.214-1.098,6.762-4.205H95.5c-0.548,1.828-2.009,2.561-4.202,2.561c-2.926,0-4.568-2.012-4.753-4.57h11.88v-0.729
	C98.424,171.391,96.049,169.014,91.48,169.014z M86.729,174.863c0.363-2.924,2.191-4.203,4.751-4.203
	c2.191,0,4.385,1.279,4.385,4.203H86.729z"/>
<path fill="#161413" d="M190.364,172.111l-0.182-2.561h-2.375c0,0.914,0.184,1.829,0.184,2.924v9.871h2.375v-6.216
	c0-3.104,1.463-4.749,4.571-4.749c0.366,0,0.912,0,1.826,0.184v-2.192c-0.366-0.185-0.731-0.185-1.46-0.185
	C192.924,169.186,191.279,170.467,190.364,172.111z"/>
<path fill="#161413" d="M266.211,172.111v-2.561h-2.376v2.924v9.871h2.558v-6.216c0-3.104,1.463-4.749,4.387-4.749
	c0.551,0,1.097,0,2.014,0.184v-2.192c-0.367-0.185-0.732-0.185-1.646-0.185C268.77,169.186,267.306,170.467,266.211,172.111z"/>
<polygon fill="#161413" points="161.666,180.516 157.28,169.549 153.991,169.549 149.604,180.516 145.584,169.549 142.659,169.549 
	147.777,182.346 151.249,182.346 155.452,171.563 160.022,182.346 163.311,182.346 168.428,169.549 165.688,169.549 "/>
<path fill="#161413" d="M116.526,164.443h-7.677v17.914h2.561v-6.947h5.483c4.75,0,6.944-2.375,6.944-5.664
	C123.836,166.639,122.008,164.262,116.526,164.443z M116.709,173.4h-5.3v-7.127h5.117c3.473,0,4.568,1.463,4.568,3.473
	C121.094,172.121,119.999,173.4,116.709,173.4z"/>
<path fill="#161413" d="M133.163,169.014c-5.119,0-7.858,2.742-7.858,6.947c0,4.385,2.739,6.762,7.858,6.762
	c5.301,0,8.04-2.377,8.04-6.762C141.203,171.574,138.646,169.014,133.163,169.014z M133.163,181.078
	c-3.473,0-5.299-2.377-5.299-5.116c0-3.108,1.827-5.302,5.299-5.302c3.654,0,5.483,2.191,5.483,5.302
	C138.646,178.701,136.817,181.078,133.163,181.078z"/>
<path fill="#161413" d="M177.208,169.014c-4.568,0-7.311,2.561-7.311,7.127c0,4.023,2.56,6.582,7.311,6.582
	c3.108,0,6.214-1.098,6.762-4.205h-2.557c-0.548,1.828-2.194,2.561-4.388,2.561c-2.925,0-4.386-2.012-4.751-4.57h12.062v-0.729
	C184.336,171.391,181.776,169.014,177.208,169.014z M172.457,174.863c0.366-2.924,2.193-4.203,4.75-4.203
	c2.194,0,4.388,1.279,4.388,4.203H172.457z"/>
<path fill="#161413" d="M281.557,169.014c-4.572,0-7.494,2.561-7.494,7.127c0,4.023,2.743,6.582,7.312,6.582
	c3.289,0,6.396-1.098,6.944-4.205h-2.742c-0.547,1.828-2.01,2.561-4.202,2.561c-2.926,0-4.567-2.012-4.751-4.57h11.878v-0.729
	C288.501,171.391,286.126,169.014,281.557,169.014z M276.806,174.863c0.179-2.924,2.19-4.203,4.751-4.203
	c2.192,0,4.385,1.279,4.385,4.203H276.806z"/>
<path fill="#161413" d="M224.35,169.005v0.548h-3.289v1.646h3.289v11.15h2.375v-11.15h5.303v-1.646h-5.303v-1.094
	c0-2.01,0.913-2.74,2.922-2.74c0.552,0,1.463,0.182,2.746,0.364v-1.827c-0.916-0.184-2.013-0.184-3.291-0.184
	C225.445,164.072,224.35,165.898,224.35,169.005z"/>
<path fill="#161413" d="M211.921,169.014c-5.118,0-8.044,2.742-8.044,6.947c0,4.385,2.742,6.762,8.044,6.762
	c5.114,0,8.04-2.377,8.04-6.762C219.961,171.574,217.219,169.014,211.921,169.014z M211.921,181.078
	c-3.476,0-5.302-2.377-5.302-5.116c0-3.108,1.826-5.302,5.302-5.302c3.653,0,5.298,2.191,5.298,5.302
	C217.219,178.701,215.391,181.078,211.921,181.078z"/>
<path fill="#161413" d="M326.16,169.014c-2.559,0-4.387,1.83-4.936,3.108c-0.729-2.009-2.742-3.108-4.566-3.108
	c-1.83,0-3.655,0.914-4.756,2.742l-0.184-2.193h-2.372c0,0.914,0.181,1.828,0.181,2.924v9.871h2.375v-6.217
	c0-3.834,2.195-5.48,4.205-5.48s3.104,1.463,3.104,5.117v6.58h2.562v-6.217c0-4.566,2.742-5.48,4.021-5.48
	c2.56,0,3.292,1.826,3.292,5.117v6.58h2.374v-7.494C331.46,170.66,329.265,169.014,326.16,169.014z"/>
<path fill="#161413" d="M344.627,175.41l-4.205-0.911c-1.825-0.366-2.742-0.731-2.742-1.829c0-1.277,1.467-2.01,3.842-2.01
	c1.826,0,3.474,0.549,3.656,2.191h2.555c0-3.105-3.472-3.838-6.211-3.838c-3.291,0-6.217,1.1-6.217,4.021
	c0,2.011,1.463,2.926,3.475,3.287l4.021,0.732c1.277,0.366,2.74,0.73,2.74,1.83c0,1.461-1.463,2.191-4.203,2.191
	c-2.189,0-3.837-0.73-4.203-2.377h-2.56c0.184,2.925,2.926,4.021,6.579,4.021c4.754,0,7.129-1.279,7.129-4.021
	C348.282,176.691,347.003,175.777,344.627,175.41z"/>
<path fill="#161413" d="M250.13,164.436h-7.673v17.912h7.673c6.399,0,10.054-3.291,10.054-8.957
	C260.184,167.544,257.078,164.436,250.13,164.436z M249.764,180.337h-4.568v-14.073h4.205c6.397,0,8.041,2.379,8.041,7.127
	C257.441,177.047,255.98,180.337,249.764,180.337z"/>
<path fill="#161413" d="M298.92,169.014c-2.741,0-6.031,0.731-6.396,3.838h2.741c0.185-1.277,1.464-2.191,3.655-2.191
	s3.655,0.914,3.655,3.107v0.547h-1.464c-2.926,0-9.502-0.182-9.502,4.203c0,2.561,2.191,4.205,5.481,4.205
	c2.558,0,4.204-0.183,5.483-2.195l0.183,1.83h2.372v-2.559v-6.216C305.13,170.477,302.576,169.014,298.92,169.014z M302.576,176.691
	c0,3.107-1.646,4.387-4.756,4.387c-2.556,0-3.471-1.098-3.471-2.561c0-2.74,5.116-2.557,6.946-2.557h1.279L302.576,176.691
	L302.576,176.691z"/>
<path fill="#CC0000" d="M373.861,142.872c-1.826-0.183-2.922-2.009-4.385-4.203l-18.275-27.962c-0.731-1.096-1.83-2.377-3.655-2.377
	h-31.255v5.668l7.127,0.729c1.463,0.183,2.561,1.828,1.463,3.472l-13.708,22.479c-0.362,0.365-1.092,2.012-2.922,2.377l-5.666,0.549
	v5.48h26.135v-5.48l-4.567-0.549c-1.83-0.184-2.926-1.461-1.83-3.289l2.014-3.108h25.036l1.646,2.559
	c1.825,2.557,0,3.655-2.191,3.838l-4.387,0.549v5.48h35.271v-5.664L373.861,142.872z M328.719,129.347l7.86-12.426l8.04,12.426
	H328.719z"/>
<path fill="#CC0000" d="M305.859,128.07c0-10.601-8.043-19.741-26.683-19.741H238.97v5.668l4.937,0.365
	c2.009,0.365,2.74,1.646,2.74,3.472v21.932c0,1.645-0.731,3.106-2.379,3.291l-5.298,0.73v5.298h40.207
	C297.816,149.085,305.859,140.133,305.859,128.07z M262.546,141.229v-25.041c0,0.002,10.417,0.002,10.417,0.002
	c10.053,0,14.073,2.192,14.073,12.61c0,10.235-4.021,12.428-14.073,12.428H262.546z"/>
<path fill="#CC0000" d="M52.549,143.604l-5.665-0.549c-1.279-0.184-2.557-0.912-2.557-3.654v-6.58h25.22v6.214
	c0,1.828-0.364,3.652-2.559,3.836l-5.666,0.548v5.665h32.714v-5.664l-5.847-0.548c-1.098-0.183-2.375-1.099-2.375-3.29v-21.2
	c0-2.192,0.729-3.655,2.556-3.838l5.666-0.546v-5.668H61.322v5.485l5.666,0.729c2.011,0.183,2.559,1.827,2.559,3.838v6.214h-25.22
	V118.2c0-2.377,1.095-3.474,2.74-3.657l5.482-0.546v-5.668h-32.53v5.668l5.482,0.546c2.011,0.183,2.743,1.827,2.56,3.838v20.652
	c0,2.375-0.549,3.837-2.742,4.021l-5.483,0.549v5.48h32.713V143.604z"/>
<path fill="#CC0000" d="M162.206,128.622c0-12.793-10.417-21.748-33.263-21.748c-23.026,0-33.445,8.955-33.445,21.748
	c0,12.979,10.419,21.931,33.445,21.931C151.79,150.553,162.206,141.6,162.206,128.622z M114.323,128.622
	c0-10.599,5.301-14.073,14.621-14.073c9.139,0,14.439,3.474,14.439,14.073c0,10.784-5.3,14.256-14.439,14.256
	C119.624,142.878,114.323,139.406,114.323,128.622z"/>
<path fill="#CC0000" d="M209.543,113.814l5.668,0.729c2.007,0.183,2.373,2.011,2.373,3.838v20.105L196.2,110.156
	c-0.912-1.095-2.008-1.826-3.47-1.826h-28.694v5.667l5.299,0.546c2.011,0.366,2.742,1.281,2.742,3.84v20.652
	c0,2.561-0.731,3.654-2.742,4.021l-5.299,0.549v5.48l0.001-0.002h25.952v-5.48l-5.484-0.549c-1.645-0.184-2.559-1.461-2.559-3.474
	v-20.65l21.567,28.51c0.729,1.094,2.19,1.643,3.47,1.643h20.47V118.2c0-1.462,0.366-3.474,2.375-3.657l5.668-0.546v-5.668h-25.952
	V113.814z"/>
</svg>
