<?xml version="1.0" standalone="yes"?>
<svg xmlns="http://www.w3.org/2000/svg" width="1650" height="781">
<path style="fill:#ffffff; stroke:none;" d="M0 0L0 781L1650 781L1650 0L0 0z"/>
<path style="fill:#330033; stroke:none;" d="M925 36.4398C919.939 37.2547 915.264 39.2731 911 42.1049C907.078 44.7096 902.916 48.0944 900.352 52.0895C883.553 78.2638 906.008 113.55 937 108.56C964.529 104.128 977.188 69.0835 958.787 48.0154C954.356 42.9423 947.46 39.1398 941 37.3009C935.877 35.8427 930.251 35.5944 925 36.4398z"/>
<path style="fill:#0ca2d3; stroke:none;" d="M925 37.4398C920.314 38.1943 916.027 39.9698 912 42.4676C908.019 44.9371 903.957 48.2291 901.352 52.1697C884.35 77.8921 906.558 112.462 937 107.56C963.976 103.217 976.127 68.4424 957.787 48.0432C953.641 43.4314 946.932 39.9895 941 38.3009C935.877 36.8427 930.251 36.5944 925 37.4398z"/>
<path style="fill:#330033; stroke:none;" d="M758 55.6096C752.839 55.8979 747.595 57.469 743 59.7608C736.847 62.8299 730.924 66.9904 727.353 73C712.872 97.3641 732.294 130.783 761 128.91C788.773 127.097 805.06 94.3403 789.301 71C785.355 65.1554 779.294 61.6121 773 58.7955C768.562 56.8094 762.897 55.3359 758 55.6096z"/>
<path style="fill:#0ca2d3; stroke:none;" d="M758 56.6096C747.394 57.2022 734.904 62.9907 728.966 72.0038C713.273 95.8254 732.313 129.782 761 127.91C788.478 126.116 804.832 92.5165 787.582 70.0038C783.859 65.1455 778.482 62.249 773 59.7955C768.562 57.8093 762.897 56.3359 758 56.6096z"/>
<path style="fill:#cc00cc; stroke:none;" d="M924 108L924 168C928.369 167.189 932.564 167 937 167L937 109C932.562 109 928.338 109.033 924 108M791 109C789.099 112.669 786.351 115.62 784 119C809.321 134.629 832.769 154.015 857 171.291C866.513 178.073 876.23 187.447 887 192C889.174 188.815 891.399 185.85 894 183C888.085 175.735 878.552 170.658 871 165.151C855.401 153.777 839.722 142.495 824 131.291C813.882 124.081 802.844 112.927 791 109z"/>
<path style="fill:#330033; stroke:none;" d="M1124 160.468C1103.51 164.333 1091.67 187.69 1097.62 207C1102.91 224.143 1121.56 235.05 1139 231.738C1168.98 226.046 1178.42 189.517 1157 169.043C1153.52 165.717 1149.56 163.155 1145 161.548C1138.76 159.347 1130.48 159.245 1124 160.468z"/>
<path style="fill:#0ca2d3; stroke:none;" d="M1124 161.468C1103.66 165.305 1092.14 189.032 1098.96 208C1104.79 224.21 1122.17 233.935 1139 230.738C1170.17 224.819 1178.88 181.897 1151 165.353C1143.17 160.709 1132.88 159.793 1124 161.468z"/>
<path style="fill:#330033; stroke:none;" d="M926 167.424C917.077 168.61 909.587 171.167 902 176.206C886.887 186.244 877.317 203.656 877.34 222C877.37 247.2 896.946 271.297 922 275.127C927.512 275.969 932.431 276.618 938 275.869C946.61 274.711 954.828 272.458 962 267.306C976.591 256.824 986.66 240.393 986.66 222C986.66 190.181 957.881 163.187 926 167.424z"/>
<path style="fill:#0ca2d3; stroke:none;" d="M926 168.424C917.476 169.557 910.343 171.875 903 176.544C864.049 201.31 874.667 266.892 922 274.127C927.512 274.969 932.431 275.618 938 274.869C946.61 273.711 954.829 271.458 962 266.306C976.197 256.107 985.66 239.823 985.66 222C985.66 190.453 957.585 164.226 926 168.424z"/>
<path style="fill:#cc00cc; stroke:none;" d="M984 204L986 217C1010.7 215.051 1035.36 211.472 1060 208.834C1072.23 207.525 1084.69 205.102 1097 205L1096 192C1086.66 192.077 1077.28 193.841 1068 194.834C1040.18 197.813 1011.94 202.8 984 204z"/>
<path style="fill:#330033; stroke:none;" d="M597 231.428C578.606 234.04 565.199 248.294 564.209 267C563.155 286.913 582.828 306.781 603 304.522C616.678 302.99 631.104 293.629 635.355 280C642.989 255.525 623.982 227.598 597 231.428z"/>
<path style="fill:#0ca2d3; stroke:none;" d="M597 232.428C583.795 234.303 572.131 242.018 567.548 255C559.505 277.78 577.068 306.426 603 303.522C616.227 302.04 629.156 293.754 634.007 281C643.227 256.757 623.554 228.658 597 232.428z"/>
<path style="fill:#cc00cc; stroke:none;" d="M766 395C774.478 389.028 781.067 380.539 788.089 373C797.055 363.375 806.945 354.625 815.911 345C827.013 333.081 838.701 321.775 849.961 310C856.656 302.998 863.138 295.862 870 289C877.23 281.77 888.85 273.395 893.253 264C894.877 260.535 890.917 254.207 886.961 254.207C883.129 254.207 879.937 259.481 877.714 262C871.227 269.352 863.932 276.068 857 283C831.675 308.325 807.188 334.513 782.004 360C776.2 365.873 770.826 372.132 765.001 378C763.037 379.978 759.213 382.807 759.207 385.91C759.201 389.013 764.183 392.662 766 395M973 257L964 265C970.013 273.544 977.853 281.106 984.718 289C998.997 305.418 1013.47 321.668 1027.84 338C1032.54 343.331 1037.1 348.784 1041.93 353.995C1043.47 355.668 1045.51 358.792 1048.09 358.793C1051.5 358.795 1054.82 354.172 1057 352C1052.41 344.662 1045.95 338.517 1040.28 332C1028.33 318.259 1016.29 304.584 1004.17 291C994.323 279.976 985.098 265.546 973 257M626 293C623.165 295.689 620.296 297.906 617 300C621.556 309.631 628.918 318.254 634.975 327C650.608 349.574 667.581 371.636 682 395L684 395C686.289 391.776 688.859 389.399 692 387C682.134 367.168 666.068 349.36 653.67 331C648.668 323.593 643.374 316.388 638.344 309C634.603 303.505 631.153 297.256 626 293z"/>
<path style="fill:#330033; stroke:none;" d="M1072 345.44C1046.71 349.509 1032.37 380.12 1046.35 401.91C1050.21 407.915 1056.72 411.751 1063 414.738C1068.61 417.405 1074.79 418.881 1081 417.961C1090.97 416.483 1101.03 412.144 1107.36 403.91C1126.99 378.388 1103.29 340.404 1072 345.44z"/>
<path style="fill:#0ca2d3; stroke:none;" d="M1072 346.44C1047.27 350.42 1033.33 380.616 1047.35 401.83C1051.27 407.752 1057.7 411.345 1064 414.208C1069.3 416.615 1075.21 417.819 1081 416.961C1090.55 415.546 1100.18 411.632 1106.36 403.83C1126.19 378.833 1102.73 341.494 1072 346.44z"/>
<path style="fill:#330033; stroke:none;" d="M721 375.425C697.786 378.576 678.247 392.606 671.637 416C661.66 451.313 693.996 488.02 730 483.715C757.732 480.398 779.171 458.376 779.871 430C780.615 399.857 751.519 371.283 721 375.425z"/>
<path style="fill:#0ca2d3; stroke:none;" d="M721 376.425C698.139 379.528 679.156 392.929 672.637 416C671.727 419.223 672.04 422.688 671.87 426C671.583 431.574 671.104 438.596 672.637 444C679.547 468.347 704.839 485.724 730 482.715C757.446 479.432 778.178 458.073 778.871 430C779.609 400.126 751.229 372.322 721 376.425z"/>
<path style="fill:#330033; stroke:none;" d="M511 421.515C505.651 422.611 501.317 424.833 497.004 428.131C492.56 431.529 488.041 435.897 485.568 441C472.71 467.53 496.971 499.487 526 493.331C532.393 491.975 537.298 489.543 542 484.985C551.097 476.167 556.601 465.114 555.186 452C552.967 431.431 530.416 417.533 511 421.515z"/>
<path style="fill:#0ca2d3; stroke:none;" d="M511 422.515C506.125 423.514 501.981 425.409 498.004 428.379C493.543 431.711 489.033 435.914 486.568 441C473.865 467.211 497.214 498.436 526 492.331C531.791 491.103 536.656 489.036 541 484.956C550.581 475.955 555.72 464.418 553.79 451C550.944 431.211 529.935 418.632 511 422.515z"/>
<path style="fill:#cc00cc; stroke:none;" d="M554 448C555.254 452.381 555.01 456.482 555 461C566.311 458.306 578.465 458.136 590 456.715C617.647 453.309 645.366 450.492 673 447C671.388 442.577 671.003 438.682 671 434C643.845 439.041 615.47 440.891 588 443.834C576.814 445.032 564.945 445.393 554 448M777 446L772 458C813.272 469.626 855.159 479.941 896 493C897.702 489.008 899.778 485.162 901 481C883.221 473.349 862.652 469.762 844 464.576C821.777 458.397 799.593 450.663 777 446z"/>
<path style="fill:#330033; stroke:none;" d="M903 479C912.954 472.017 921.751 463.628 935 465.29C961.118 468.567 977.656 499.99 960.363 521.83C943.225 543.473 909.07 538.896 898.927 513C894.054 500.561 898.203 491.464 903 480C888.396 494.408 895.943 519.739 911 530.367C927.078 541.714 949.066 538.359 961.363 522.83C985.442 492.421 946.862 449.676 914 469.019C909.537 471.645 905.98 474.782 903 479z"/>
<path style="fill:#0ca2d3; stroke:none;" d="M927 465.439C921.51 466.303 916.658 468.209 912 471.244C881.101 491.374 900.812 541.597 937 535.915C942.571 535.04 947.286 533.175 952 530.046C982.523 509.788 963.464 459.699 927 465.439z"/>
<path style="fill:#cc00cc; stroke:none;" d="M738 482C734.128 483.177 730.041 483.681 726 484L726 546C730.469 545.66 734.531 545.66 739 546L739 502C739 495.846 740.395 487.707 738 482M951 531C947.426 533.185 944.139 535.202 940 536C944.716 555.9 955.446 574.627 962 594C966.221 593.248 969.898 591.181 974 590C972.078 577.165 964.796 564.028 960 552C957.277 545.171 955.453 536.89 951 531z"/>
<path style="fill:#330033; stroke:none;" d="M730 545.454C715.456 547.364 702.066 556.588 697.623 571C690.505 594.086 709.786 621.508 735 618.71C753.383 616.67 768.346 601.715 769.39 583C770.513 562.894 750.297 542.787 730 545.454z"/>
<path style="fill:#0ca2d3; stroke:none;" d="M730 546.454C715.901 548.306 702.953 556.954 698.623 571C691.598 593.784 710.029 620.481 735 617.71C753.103 615.701 767.362 601.425 768.39 583C769.497 563.18 749.994 543.827 730 546.454z"/>
<path style="fill:#330033; stroke:none;" d="M980 588.429C961.442 591.004 947.383 604.905 946.376 624C945.305 644.311 965.56 664.238 986 661.546C1003.7 659.215 1019.11 644.253 1020.19 626C1021.4 605.37 1000.5 585.584 980 588.429z"/>
<path style="fill:#0ca2d3; stroke:none;" d="M980 589.429C970.412 590.759 960.456 594.918 954.637 603.001C937.844 626.327 955.08 664.618 986 660.546C1003.54 658.237 1018.07 644.045 1018.9 626C1019.83 605.599 1000.69 586.558 980 589.429z"/>
<path style="fill:#cc00cc; stroke:none;" d="M1016 640C1013.91 643.296 1011.69 646.165 1009 649C1015.6 657.102 1026.47 662.752 1035 668.72C1047.35 677.365 1059.5 688.284 1073 695C1074.62 692.15 1079.03 687.693 1077.74 684.184C1075.89 679.125 1066.22 674.867 1062 671.859C1047.31 661.383 1032.29 647.74 1016 640M952 644C942.886 650.938 934.672 659.099 926 666.576C920.695 671.151 914.012 675.559 911 682C913.195 683.811 916.037 688.789 919.093 688.793C923.084 688.798 928.21 682.427 931 679.95C940.689 671.349 950.798 663.126 960 654C957.814 650.214 955.194 646.985 952 644z"/>
<path style="fill:#330033; stroke:none;" d="M882 672.464C876.214 673.506 870.872 675.721 866.015 679.005C850.859 689.252 846.272 711.149 855.609 726.999C863.302 740.059 879.017 747.176 894 744.674C912.493 741.586 926.422 721.464 923.79 703C921.064 683.879 900.848 669.072 882 672.464z"/>
<path style="fill:#0ca2d3; stroke:none;" d="M882 673.464C876.246 674.5 870.776 676.67 866.001 680.044C851.284 690.441 847.249 712.794 857.249 728C865.095 739.93 879.899 746.029 894 743.674C912.199 740.635 926.266 720.258 922.621 702C918.965 683.689 900.466 670.141 882 673.464z"/>
<path style="fill:#330033; stroke:none;" d="M1101 673.515C1093.61 675.026 1086.62 677.939 1081.09 683.184C1067.12 696.429 1066.34 720.579 1079.33 734.907C1087.72 744.175 1101.9 748.049 1114 745.482C1132.56 741.545 1145.73 723.047 1143.1 704C1140.49 685.021 1119.76 669.674 1101 673.515z"/>
<path style="fill:#0ca2d3; stroke:none;" d="M1101 674.515C1093.68 676.013 1086.57 678.869 1081.17 684.184C1068.06 697.1 1067.54 721.333 1080.33 734.816C1088.59 743.536 1102.42 746.94 1114 744.482C1120.37 743.132 1126.92 739.973 1131.67 735.482C1155.85 712.629 1134.13 667.733 1101 674.515z"/>
</svg>
