<?xml version="1.0" standalone="yes"?>
<svg xmlns="http://www.w3.org/2000/svg" width="1200" height="568">
<path style="fill:#ffffff; stroke:none;" d="M0 0L0 568L1200 568L1200 0L0 0z"/>
<path style="fill:#18bac0; stroke:none;" d="M260 26L260 487L415 487C413.052 479.863 410.103 472.98 407.657 466C406.689 463.239 405.779 458.866 403.301 457.028C400.94 455.277 396.752 456 394 456L373 456L292 456L292 57L909 57L909 456L816 456C823.745 464.474 835.542 470.835 845 477.341C849.356 480.338 853.906 484.806 859 486.437C866.53 488.847 877.127 487 885 487L941 487L941 26L260 26z"/>
<path style="fill:#f8cd23; stroke:none;" d="M660 234.514C650.39 235.118 642.008 236.635 633 240.204C625.238 243.279 617.506 247.18 611 252.468C572.167 284.027 571.312 344.177 588.604 387C599.857 414.868 626.153 448.822 660 446.907C686.029 445.434 705.515 431.315 720.87 411C744.193 380.143 752.835 336.376 741.999 299C731.567 263.018 699.741 232.017 660 234.514M410 357C408.773 363.611 408.461 370.341 407.576 377C406.973 381.535 405.6 387.516 406.677 392C409.068 401.962 416.844 412.038 421.691 421C430.673 437.607 439.326 454.393 448.309 471C452.489 478.728 458.085 486.722 461.031 495C462.883 500.206 462 506.555 462 512L462 543L834 543C833.834 534.979 831.739 526.906 830.414 519C829.866 515.734 829.876 511.213 827.987 508.39C826.26 505.81 822.72 504.613 820 503.424C814.911 501.201 809.967 498.73 805 496.247C788.134 487.814 770.869 480.187 754 471.753C747.284 468.395 737.618 461.778 730 461.803C724.062 461.823 717.858 463.667 712 464.576C699.661 466.489 687.329 468.43 675 470.41C668.579 471.442 661.076 473.66 654.576 473.048C638.517 471.536 621.656 465.041 606 461.127C600.563 459.767 593.6 456.508 588 456.768C583.571 456.973 579.95 461.138 577 464.015C570.079 470.763 562.845 477.189 556 484.001C553.416 486.572 548.395 493.839 544.089 492.079C540.668 490.68 537.873 485.748 535.586 483L517.414 461C498.863 438.711 480.498 416.266 461.92 394C456.378 387.358 450.845 380.712 445.389 374C442.286 370.184 439.17 365.441 434.985 362.738C428.806 358.749 417.256 357.577 410 357z"/>
</svg>
