<?xml version="1.0" standalone="yes"?>
<svg xmlns="http://www.w3.org/2000/svg" width="1580" height="748">
<path style="fill:#ffffff; stroke:none;" d="M0 0L0 748L1580 748L1580 0L0 0z"/>
<path style="fill:#000000; stroke:none;" d="M778 34L778 164L558 164C492.769 164 425.839 163.731 367 196.439C337.521 212.826 309.531 233.437 287.289 259C220.327 335.964 197.416 448.548 232.544 545C244.311 577.31 263.388 606.878 285.439 633C306.981 658.52 334.761 680.63 364 696.688C449.141 743.447 557.354 740.376 641 692.421C657.24 683.111 674.556 672.095 688 658.985C700.924 646.383 714.598 633.535 725.392 619C736.906 603.494 746.145 586.216 754.753 569C758.194 562.119 761.077 555.187 763.808 548C765.027 544.792 765.852 539.96 768.51 537.603C770.305 536.012 772.745 536.047 775 536.005C783.66 535.842 792.338 536 801 536C804.236 536 808.845 535.225 811.722 537.028C814.6 538.831 815.318 543.043 816.424 546C819.382 553.902 822.469 561.445 826.247 569C838.434 593.374 852.228 615.518 870.286 636C911.388 682.622 969.555 715.72 1031 725.589C1040.8 727.164 1051.07 729.742 1061 729.985C1128.36 731.636 1195.49 717.116 1250 675.497C1293.49 642.295 1329.48 596.686 1348.3 545C1377.65 464.423 1366.72 370.425 1321.81 298C1312.76 283.407 1302.86 268.451 1290.96 256C1253.81 217.132 1205.25 184.439 1152 172.514C1100.15 160.902 1045.77 164 993 164L802 164L802 34L778 34z"/>
<path style="fill:#ffffff; stroke:none;" d="M499 196.424C479.995 198.92 460.868 198.039 442 202.503C391.847 214.368 344.026 243.225 310.289 282C251.523 349.544 231.754 448.457 262.544 533C275.571 568.769 297.274 599.274 324 626C342.967 644.967 364.52 661.451 389 672.691C404.828 679.959 421.031 686.843 438 691.105C500.334 706.761 567.312 696.942 623 665.281C637.255 657.176 652.074 648.345 664 636.961C677.607 623.971 692.156 610.29 703.214 595C710.878 584.404 716.924 572.658 722.753 561C728.315 549.876 732.785 538.67 737.053 527C739.598 520.041 741.619 512.318 748.039 507.854C754.952 503.048 764.041 504 772 504C787.62 504 803.396 503.35 819 504.039C840.488 504.989 843.582 526.287 849.695 543C859.313 569.293 875.541 593.41 894.17 614C936.114 660.36 995.354 691.768 1058 697.83C1078.07 699.773 1100.1 698.43 1120 695.572C1143.83 692.15 1166.24 684.3 1188 674.309C1213.06 662.801 1235.45 647.544 1255 628C1282.42 600.589 1304.01 570.418 1317.94 534C1348.08 455.192 1331.5 361.336 1280.88 295C1264.64 273.705 1244.59 253.531 1222 238.865C1197.26 222.801 1167.82 209.322 1139 202.503C1121.25 198.305 1103.04 198.146 1085 196.911C1045.6 194.212 1005.53 196 966 196L654 196L552 196C534.675 196 516.178 194.169 499 196.424z"/>
<path style="fill:#000000; stroke:none;" d="M766 253L766 301L814 301L814 253L766 253z"/>
<path style="fill:#ff0000; stroke:none;" d="M1074 253.515C1049.31 258.566 1026.9 275.083 1021.39 301C1012.5 342.815 1050.01 384.285 1093 375.485C1123.05 369.335 1144.3 342.636 1142.96 312C1141.75 284.25 1123.29 263.115 1097 255.579C1089.53 253.439 1081.77 251.924 1074 253.515z"/>
<path style="fill:#000000; stroke:none;" d="M474 350L474 423L401 423L401 471L474 471L474 544L523 544L523 471L596 471L596 423L523 423L523 350L474 350z"/>
<path style="fill:#f2f200; stroke:none;" d="M941 386.464C931.445 388.14 921.998 390.91 914 396.637C879.563 421.298 879.563 473.702 914 498.363C927.233 507.839 945.164 510.029 961 507.561C969.283 506.27 976.979 503.57 984 498.895C1019.66 475.148 1019.33 421.378 985 396.789C978.024 391.793 970.292 389.259 962 387.6C955.108 386.222 948.012 385.233 941 386.464z"/>
<path style="fill:#1eb41e; stroke:none;" d="M1206 386.464C1196.44 388.14 1187 390.91 1179 396.637C1144.56 421.298 1144.56 473.702 1179 498.363C1192.23 507.839 1210.16 510.029 1226 507.561C1234.28 506.27 1241.98 503.57 1249 498.895C1284.66 475.148 1284.33 421.378 1250 396.789C1243.02 391.793 1235.29 389.259 1227 387.6C1220.11 386.222 1213.01 385.233 1206 386.464z"/>
<path style="fill:#2a2aff; stroke:none;" d="M1074 518.515C1049.31 523.566 1026.9 540.083 1021.39 566C1012.5 607.815 1050.01 649.285 1093 640.485C1123.05 634.335 1144.3 607.636 1142.96 577C1141.75 549.25 1123.29 528.115 1097 520.579C1089.53 518.439 1081.77 516.924 1074 518.515z"/>
</svg>
