<?xml version="1.0" encoding="utf-8"?>
<!-- Generator: Adobe Illustrator 14.0.0, SVG Export Plug-In . SVG Version: 6.00 Build 43363)  -->
<!DOCTYPE svg PUBLIC "-//W3C//DTD SVG 1.1//EN" "http://www.w3.org/Graphics/SVG/1.1/DTD/svg11.dtd">
<svg version="1.1" id="kfc" xmlns="http://www.w3.org/2000/svg" xmlns:xlink="http://www.w3.org/1999/xlink" x="0px" y="0px"
	 width="400px" height="300px" viewBox="0 0 400 300" enable-background="new 0 0 400 300" xml:space="preserve">
<g id="Layer_2">
	<g>
		<g>
			<g>
				<path fill="#A3080C" d="M201.146,35.674c-2.775,0-8.189,0.29-8.41,0.303c1.049,0.28-80.98,42.364-80.98,41.922
					c-0.023,0.143-0.063,0.261-0.139,0.354c-16.261,19.892-25.913,45.162-25.913,72.86c0,22.826,6.651,44.09,18.087,62.005
					c0.077-0.041,29.118,28.087,28.764,30.841c19.182,14.189,42.898,22.589,68.587,22.589c8.973,0,17.688-1.062,26.076-2.991
					c-0.152-0.91-0.292-1.82-0.416-2.718l-1.516-10.644c-0.457-2.91-2.842-22.696-2.842-22.696l-0.008-0.06l2.537-0.975
					c0,0,3.337,0.139,3.254,0.146c0,0,3.382,19.9,3.971,23.354l0.637,3.654c0.245,1.471,0.452,2.931,0.757,4.441
					c0.213,1.258,0.401,2.463,0.589,3.664c2.734-0.822,5.432-1.734,8.075-2.746c-0.401-2.262-0.839-4.593-0.876-4.938l-1.362-8.096
					c-1.802-8.353-2.948-14.547-3.789-18.668c-0.12-0.592-0.346-1.646-0.346-1.646l2.606-1.042l3.437,0.268
					c0,0,4.386,19.188,5.479,24.989l1.25,6.46c2.352-1.064,4.681-2.188,6.941-3.404l-0.724-3.314
					c-0.078-0.32-0.161-0.706-0.26-1.136c-1.473-6.479-5.382-24.536-5.382-24.536l3.135-1.23l3.063,0.432h0.017
					c0,0,3.935,16.645,6.487,26.117c4.385-2.721,8.586-5.709,12.546-8.977c0,0,36.557-54.722,36.817-54.54
					c3.428-10.924,5.282-22.55,5.282-34.606C316.58,87.36,264.897,35.674,201.146,35.674z"/>
			</g>
		</g>
	</g>
</g>
<g id="Layer_6">
	<path fill="#FFF1E2" d="M230.066,93.144c0,0-14.418-27.189-20.299-31.27c-5.875-4.081-15.558-6.629-22.271-5.78
		c-8.499,1.073-27.937,11.359-29.229,11.699c0.01,0.1-7.242,9.044-9.137,18.257c-0.421,2.047-7.883,34.686-7.883,34.686
		l14.189,40.993l50.566,24.125l18.541-20.185c0,0,2.365-19.971,7.358-34.948c4.992-14.978,3.415-23.124,3.415-23.124L230.066,93.144
		z"/>
</g>
<g id="Layer_4">
	<path fill="#FFFFFF" d="M172.298,197.63c-0.152,0.058-0.293,0.12-0.425,0.179C172.004,197.75,172.144,197.688,172.298,197.63"/>
	<path fill="#FFFFFF" d="M171.87,197.813L171.87,197.813z"/>
	<path fill="#FFFFFF" d="M168.135,119.558c-0.803,0.457-1.396,0.564-1.767,0.762c-0.371,0.202-0.957,0.638-0.812,1.416
		c0.152,0.782,0.366,1.036,0.441,1.639c0.071,0.596-0.216,1.678-0.91,2.906c-0.683,1.231-1.774,2.121-2.396,2.48
		c-0.609,0.365-0.984,0.463-1.331,0.646c-0.079,0.036-0.15,0.225-0.221,0.604c-0.003,0.003-0.003,0.003-0.008,0.007
		c0.044-0.035,0.093-0.067,0.161-0.093c0.133-0.057,0.407-0.064,0.654-0.11c0.239-0.044,0.415-0.1,0.502-0.112
		c0.093-0.011,0.646-0.089,0.739-0.109c0.093-0.019,1.77-0.369,2.809-0.848c1.033-0.481,2.849-1.356,3.889-2.612
		c0.764-0.92,1.684-2.595,1.772-4.258c0.021-0.344,0.018-0.557,0.018-0.557s0.005,0,0.005-0.004c0.012,0,0.021-0.003,0.032-0.003
		c-0.171-0.007-0.321-0.064-0.443-0.164c-0.278-0.217-0.502-0.378-1.355-1.29c-0.549-0.588-0.511-1.019-0.215-1.512
		c-0.007,0.011-0.019,0.022-0.027,0.033C169.421,118.616,168.927,119.102,168.135,119.558"/>
	<path fill="#FFFFFF" d="M210.528,114.125c0,0-0.468,0.04-0.629,0.111c-0.128,0.053-0.368,0.143-0.533,0.363
		c-0.164,0.225-0.202,0.617,0.143,1.039c0.352,0.42,0.833,1.206,0.793,1.878c-0.024,0.295,0.02,1.262-0.296,1.958
		c-0.351,0.789-0.756,1.567-1.033,1.918c-0.161,0.207-0.903,1.028-1.013,1.61c-0.028,0.122,0,0.258,0.059,0.386
		c0,0,0.008-0.007,0.008,0.003c-0.004,0.004,0,0.011-0.004,0.018c0.016-0.046,0.033-0.09,0.068-0.132
		c0.187-0.208,0.563-0.418,1.222-0.621c0.872-0.276,1.491-0.604,1.973-0.972c-0.058,0.067-0.073,0.146-0.109,0.225
		c0.052-0.121,0.105-0.24,0.215-0.334c0.259-0.223,3.681-2.52,3.768-6.227c0.033-1.392-1.771-1.576-2.524-1.601
		c-0.56-0.023-1.611,0.489-2.058,0.381c-0.007-0.003-0.021-0.015-0.036-0.019c0.007,0,0.007,0.003,0.007,0.003
		C210.546,114.12,210.532,114.12,210.528,114.125"/>
	<path fill="#FFFFFF" d="M174.096,139.719c0,0,13.598,4.205,20.102-3.35c6.503-7.554,17.736,4.008,18.459,7.423
		c0.724,3.416-16.883,12.876-22.204,13.072s-26.408-2.628-26.408-4.796C164.045,149.901,174.096,139.719,174.096,139.719z"/>
	<path fill="#FFFFFF" d="M229.902,85.688c-2.163-22.933-12.715-34.427-20.299-40.006c-7.972-5.252-26.933-9.878-35.868-9.459
		c-10.544,0.491-34.893,11.992-35.835,12.841c-0.897,0.819-17.229,28.124-15.208,33.003c2.02,4.877,4.881,27.916,5.813,29.766
		c0.284,0.554,4.942,15.563,8.016,15.011c3.098-0.557,5.983-14.246,5.847-15.307c-0.394-3.021-5.878-16.638-5.453-18.558
		c0.432-1.915,15.079-24.848,16.127-25.653c0.74-0.563,25.866-3.688,26.011-3.445c-0.003-0.007-0.003-0.015-0.013-0.022
		l-0.003-0.004c1.756-1.531,5.829-5.566,9.469-5.421c3.638,0.15,14.033,1.449,19.908,5.535c5.881,4.081,7.697,8.076,8.197,9.194
		c-0.005,0-0.012,0.005-0.017,0.005c0.197,0.029,8.38,18.628,10.776,18.695C228.971,91.907,230.165,88.444,229.902,85.688z"/>
	<path fill="#FFFFFF" d="M219.723,100.936c-0.872,0.102-3.26,0.32-3.522,0.353c-0.468,0.061-0.456,0.326-0.427,0.524
		c0.023,0.205,0.099,0.99,0.127,1.328c0.029,0.336,0.38,0.533,0.739,0.504c0.36-0.025,2.644-0.232,2.983-0.285
		c0.332-0.054,0.661-0.335,0.657-0.604c-0.007-0.271-0.003-0.985-0.007-1.273C220.267,101.191,220.052,100.899,219.723,100.936"/>
	<path fill="#FFFFFF" d="M124.781,210.604c0.454,0.099,0.936,0.209,1.403,0.317c-1.043-0.242-2.179-0.489-2.828-0.649
		c-0.321-0.082-0.828-0.129-1.414-0.116c-0.978,0.021-2.185,0.213-3.159,0.702c-1.231,0.611-9.06,4.58-12.34,6.238
		c3.755,5.381,7.946,10.428,12.54,15.088c0.287-1.183,5.418-6.566,6.14-9.723C126.112,218.137,123.651,212.43,124.781,210.604"/>
	<path fill="#FFFFFF" d="M255.435,223.122l-6.188,0.798c0,0,4.451,20.546,5.643,25.671l0.719,3.314
		c2.15-1.159,4.255-2.384,6.323-3.669c-2.558-9.473-6.491-26.114-6.491-26.114H255.435z"/>
	<g>
		<polygon fill="none" points="218.065,208.066 217.443,206.296 216.731,206.296 216.731,208.779 217.184,208.779 217.184,206.78 
			217.875,208.779 218.273,208.779 218.957,206.78 218.957,208.779 219.413,208.779 219.413,206.296 218.7,206.296 		"/>
		<polygon fill="none" points="214.2,206.711 215.01,206.711 215.01,208.779 215.5,208.779 215.5,206.711 216.311,206.711 
			216.311,206.296 214.2,206.296 		"/>
	</g>
	<path fill="#FFFFFF" d="M291.281,140.919c-3.124,2.36-4.854,5.548-4.846,8.738c0.016,4.729,3.841,9.282,12.703,9.254
		c2.198-0.015,4.139-0.237,5.901-0.537c0.517-0.084,1.021-0.176,1.498-0.274l1.03-4.401c-1.717,0.573-3.888,1.049-5.626,1.057
		c-4.72,0.015-7.884-2.784-7.893-6.454c-0.008-1.956,0.798-3.673,2.25-4.93c1.558-1.346,3.853-2.16,6.723-2.16
		c2.272,0,3.603,0.628,4.509,1.525c0.182,0.175,0.35,0.36,0.497,0.553h0.738l1.446-5.195c-1.489-0.492-3.699-0.905-6.03-0.932
		C298.756,137.089,294.345,138.603,291.281,140.919"/>
	<path fill="#FFFFFF" d="M283.89,141.641c0.637,0,1.165,0.232,1.52,0.536c0.304,0.257,0.486,0.564,0.486,0.829h0.728l1.41-5.641
		h-19.151l-0.279,1.104l-0.066,0.268c0,0,2.097,0.236,1.455,2.331l-4.781,17.37l8.131,0.017h1.427l0.361-1.491
		c0,0-1.788-0.432-1.319-2.082c0.021-0.104,0.694-2.574,1.097-4.057c0.181-0.64,0.309-1.101,0.309-1.101l4.376-0.003
		c0.717,0,1.265,0.132,1.688,0.295c0.877,0.336,1.213,0.844,1.213,0.844l1.271-5.161h-7.38l0.799-2.948l0.299-1.099L283.89,141.641z
		"/>
	<path fill="#FFFFFF" d="M260.619,155.336c-0.565-0.605-5.487-8.271-5.487-8.271l8.702-6.965l0.288-0.231
		c0.391-0.326,0.757-0.556,1.077-0.723c0.925-0.475,1.521-0.408,1.521-0.408l0.35-1.388l-11.187,0.017l-0.277,1.1l-0.065,0.271
		c0.76,0.053,1.82,0.732,0.953,1.542c-0.113,0.097-8.99,6.88-8.99,6.88l0.069-0.24l1.846-6.686c0.392-1.335,1.825-1.496,1.825-1.496
		l0.353-1.375l-10.68,0.003l-0.273,1.1l-0.07,0.272c0.511,0.131,1.969,0.415,1.464,2.331c-3.563,12.879-3.156,11.604-3.396,12.306
		c-0.799,3.055-1.995,3.475-2.715,3.552c-0.156,0.015-0.293,0.015-0.392,0.021l-0.146,0.575l-0.228,0.914h9.747h1.422l0.373-1.513
		c0,0-1.771-0.351-1.435-1.63c0.171-0.643,0.618-2.271,1.015-3.711c0.383-1.396,0.723-2.62,0.723-2.62
		c1.938,3.104,2.383,3.489,4.722,6.697c2.149,2.968,4.449,2.829,10.001,2.79c0.453-0.003,0.921-0.008,1.426-0.008l0.369-1.482
		C262.113,156.969,261.181,155.941,260.619,155.336"/>
	<path fill="#FFFFFF" d="M313.284,137.729c-0.277-0.272-0.605-0.408-1.001-0.408c-0.387,0-0.715,0.136-0.994,0.408
		c-0.271,0.272-0.409,0.606-0.409,0.996c0,0.393,0.14,0.726,0.409,1.002c0.271,0.273,0.607,0.415,0.994,0.415
		c0.395,0,0.724-0.143,1.001-0.415c0.275-0.277,0.413-0.61,0.413-1.002C313.702,138.335,313.558,138,313.284,137.729
		 M313.146,139.588c-0.234,0.239-0.525,0.36-0.862,0.36c-0.336,0-0.622-0.12-0.854-0.36c-0.234-0.235-0.354-0.524-0.354-0.864
		c0-0.333,0.12-0.621,0.354-0.857c0.236-0.239,0.519-0.359,0.854-0.359c0.337,0,0.621,0.121,0.862,0.359
		c0.233,0.236,0.351,0.524,0.351,0.857C313.497,139.063,313.381,139.353,313.146,139.588"/>
	<path fill="#FFFFFF" d="M312.924,138.391c0-0.194-0.084-0.325-0.237-0.393c-0.104-0.033-0.234-0.051-0.423-0.051h-0.542v1.547
		h0.267v-0.611h0.215c0.148,0,0.247,0.018,0.313,0.051c0.091,0.06,0.143,0.178,0.139,0.356v0.119l0.012,0.053
		c0,0.007,0,0.011,0,0.018c0,0,0,0.007,0.008,0.015h0.252l-0.004-0.022c-0.016-0.011-0.016-0.036-0.021-0.079v-0.112v-0.117
		c0-0.079-0.029-0.165-0.087-0.244c-0.051-0.079-0.147-0.132-0.265-0.15c0.096-0.015,0.17-0.036,0.224-0.075
		C312.868,138.63,312.924,138.53,312.924,138.391 M312.493,138.662c-0.055,0.022-0.14,0.029-0.252,0.029h-0.251v-0.557h0.229
		c0.153-0.003,0.269,0.018,0.338,0.057c0.065,0.036,0.103,0.115,0.103,0.229C312.657,138.534,312.601,138.616,312.493,138.662"/>
	<path fill="#FFFFFF" d="M297.597,181.172c-14.716-4.467-44.935-3.416-44.935-3.416l24.7,58.203c0,0,2.288-1.146,2.573-0.521
		c13.399-12.526,23.805-28.192,30.045-45.838C309.49,189.223,312.313,185.641,297.597,181.172z"/>
	<g>
		<polygon fill="none" points="219.413,206.595 219.413,206.296 219.168,206.296 		"/>
		<g>
			<polygon fill="none" points="219.413,206.595 219.413,206.296 219.168,206.296 			"/>
			<path fill="#FFFFFF" d="M247.416,249.852c-1.103-5.802-5.491-24.99-5.491-24.99s5.826-1.53,7.192-4.865
				c1.366-3.333-1.726-8.471-1.872-10.494c-0.632-6.043-3.006-30.794-6.897-35.918c-2.267-2.982-12.688-8.871-13.499-8.835
				c-3.745,0.164-11.233,16.474-17.491,17.95c-4.171,0.984-7.117-3.072-6.441-2.766c-0.013-0.01-0.025-0.017-0.033-0.022
				c0,0,0.008-0.468-0.689-2.659c-0.698-2.2-2.16-4.508-2.43-5.029c-0.264-0.523-1.057-1.662-1.083-1.794
				c-0.022-0.129-0.312-0.862-0.516-2.198c-0.389-2.58-0.21-4.309-0.195-4.465c0.008-0.158,0.079-0.625,0.101-0.721
				c0.017-0.1-0.022-0.268-0.141-0.296c-0.125-0.021-0.457-0.103-0.806,0.255c-0.725,0.73-0.758,0.87-0.771,0.994
				c-0.025,0.115,0.049,0.337,0.027,0.592c-0.078,0.813-0.221,1.434-0.584,2.023c-0.361,0.6-0.598,0.806-1.109,0.757
				c-0.521-0.047-0.955-0.461-1.019-1.53c-0.067-1.068-0.277-1.438-0.492-1.688c-0.214-0.265-0.701-0.385-0.867-0.375
				c-0.164,0-0.303,0.146-1.43,0.425c-1.117,0.284-2.895,0.38-3.155,0.391c-0.268,0.017-1.243,0.114-1.25,0.116
				c0.204,0.764-4.099-0.41-4.821,0.171c-1.479,1.183-2.168,8.86-2.891,12.843c-0.001,0.002-0.001,0.006-0.001,0.012l-24.239,2.453
				l-8.475,19.707c0,0,2.563,39.021,2.563,39.612c0,0.593,53.604-11.627,53.604-11.627l20.225-0.438c0,0,0.005,0.016,0.009,0.055
				c0.144,1.165,2.385,19.789,2.842,22.705l1.517,10.635c0.125,0.903,0.264,1.816,0.416,2.718c2.346-0.542,4.669-1.144,6.96-1.829
				c-0.187-1.199-0.378-2.408-0.588-3.658c-0.302-1.517-0.51-2.974-0.754-4.446l-0.642-3.653
				c-0.585-3.449-3.975-23.345-3.975-23.345l3.553-2.243l4.111,1.257c0.109,0.505,0.22,1.052,0.345,1.646
				c0.844,4.128,1.994,10.316,3.789,18.66l1.362,8.104c0.037,0.344,0.477,2.675,0.881,4.939c2.162-0.83,4.292-1.726,6.394-2.676
				L247.416,249.852z"/>
		</g>
	</g>
</g>
<g id="Layer_5">
	<path fill="#F5D4B7" d="M207.238,102.012c-4.468,0.657-10.971,4.303-10.675,6.963c0.183,1.649,9.499,1.901,13.696,2.201
		c4.198,0.3,4.892-3.736,4.665-5.929C214.699,103.054,211.939,101.321,207.238,102.012z"/>
	<path fill="#F5D4B7" d="M237.723,173.633c-2.218-0.23-1.188,3.364-1.215,3.729v0.008c1.123,4.23,2.055,8.451,2.774,12.271
		c0.008,0.377,0.037,0.707,0.083,0.976c0.317,1.665,0.976,7.046,2.24,19.2c0.292,4.049,0.547,8.271,0.716,11.822
		c0.115-0.008,7.582,0.426,7.582,0.426s-0.296-10.445-2.611-23.551C244.977,185.407,241.505,174.027,237.723,173.633z"/>
	<path fill="#F5D4B7" d="M217.59,140.722c0.337-1.849-0.048-2.762-0.653-3.843c-0.596-1.078-1.746-2.086-3.233-3.064
		c-1.438-0.957-4.689-3.826-5.005-4.097c-0.309-0.265-1.826-1.7-2.178-1.986c-0.366-0.281-1.074-0.871-2.631-1.66
		c-3.771-1.901-6.803-0.479-6.919-0.413c-0.115,0.065-0.676,0.517-1.212,1.026c-0.527,0.5-0.131,1.469,0.071,1.822
		c0,0,20.011,14.668,20.051,15.01l0.016,0.011C215.894,143.528,217.312,142.232,217.59,140.722"/>
	<path fill="#F5D4B7" d="M209.311,122.656c-0.657,0.202-1.035,0.412-1.222,0.621c-0.035,0.042-0.05,0.087-0.064,0.132
		c-0.016,0.034-0.016,0.071-0.016,0.105c0,0.029,0,0.055,0,0.08c0.008,0.035,0.021,0.064,0.029,0.096
		c0.018,0.036,0.036,0.075,0.059,0.111c0.015,0.023,0.028,0.049,0.05,0.075c0.028,0.045,0.069,0.089,0.109,0.135
		c0.019,0.022,0.036,0.04,0.06,0.062c0.051,0.05,0.104,0.104,0.168,0.157c0.016,0.015,0.029,0.029,0.048,0.04
		c0.07,0.061,0.144,0.117,0.215,0.177c0.017,0.007,0.021,0.015,0.037,0.026c0.088,0.063,0.176,0.122,0.263,0.182
		c0.004,0.004,0.009,0.004,0.013,0.007c0.099,0.064,0.192,0.125,0.283,0.184c0.1,0.059,0.238,0.089,0.406,0.093
		c0.16,0.007,0.358-0.015,0.571-0.053c0.701-0.139,1.6-0.493,2.359-0.857c0,0.004-0.009,0-0.017,0.004
		c-0.044,0.015-1.436-2.281-1.381-2.349C210.802,122.051,210.188,122.38,209.311,122.656"/>
	<path fill="#F5D4B7" d="M182.443,136.378c0.055,0.022,0.104,0.055,0.161,0.077c-0.007-0.007-0.012-0.011-0.016-0.018
		c-0.284-0.296-0.307-0.362-0.406-0.764c-0.107-0.419-0.382-0.932-0.497-1.222c-0.123-0.292-0.673-1.284-0.887-1.927
		c-0.211-0.643-0.307-1.036-0.349-1.68c-0.164-0.487-0.289-1.455-0.214-2.33c0.063-0.774,0.236-1.666,0.727-4.172
		c0.333-1.646-0.188-3.542-0.206-5.297c-0.016-1.354-0.149-4.68-0.111-8.028v-0.011c-0.232,0.079-30.033-6.314-29.823-6.346
		c0.004,0,0.012-0.004,0.018-0.004c0.235-2.467,0.094-5.787-0.04-8.304c0.771-7.561,1.935-16.312,4.605-22.146
		c2.064-4.486,1.789-3.008,2.809-5.122c0.057-0.114,0.133-0.247,0.144-0.404c0.011-0.105-0.075-0.699-0.093-0.888
		c0-0.003,0-0.003,0-0.007c-0.062,0.018-7.323-2.016-16.359,18.724c-3.782,8.688,1.251,30.416,1.251,30.416l7.867,2.612l5.124-2.784
		l12.12-2.488l4.95,2.415c0,0-1.523,4.636-1.536,4.636c0,0.003-0.005,0.003-0.005,0.003s0.005,0.218-0.021,0.558
		c-0.085,1.666-1.006,3.34-1.774,4.261c-1.034,1.253-2.849,2.128-3.881,2.612c-1.041,0.475-2.716,0.829-2.813,0.846
		c-0.089,0.021-0.647,0.097-0.737,0.111c-0.09,0.007-0.262,0.064-0.501,0.111c-0.248,0.043-0.52,0.05-0.656,0.107
		c-0.066,0.025-0.119,0.058-0.16,0.097c-0.074,0.061-0.114,0.132-0.135,0.21c-0.004,0.007-0.007,0.022-0.007,0.033
		c-0.016,0.075-0.016,0.15-0.004,0.218c0.05,0.246,0.317,0.59,0.349,0.65c0.112,0.214,0.754,0.824,1.808,0.588
		c1.384-0.311,2.278-0.588,3.203-0.886c0.932-0.304,2.167-0.838,2.354-1.003c0.192-0.159,0.704-0.55,0.786-0.595
		c0-0.004,0.003-0.004,0.003-0.004c0.106-0.097,0.207-0.188,0.307-0.274c0.043-0.037,0.085-0.082,0.128-0.115
		c0.012-0.009,0.019-0.016,0.028-0.024c0.163,1.953-2.179,7.815-2.179,7.815s-5.457,1.942-5.111,1.685c0,0-0.006,0-0.006,0.003
		c-0.444,0.218-1.096,0.453-1.758-0.064c0,0-0.643-0.75-1.429-1.746c-0.472-0.596-0.992-1.275-1.464-1.938
		c-0.333-0.468-0.568-0.849-0.743-1.164c-0.341-0.579-0.477-0.95-0.536-1.182c-0.007-0.018-0.016-0.039-0.016-0.053
		c-0.146-0.386-0.269-1.01-0.269-1.01c-0.984-0.122-2.021-0.347-2.978-0.696c0.008,0.003,0.008,0.013,0.016,0.021
		c0.079,0.071-6.758,1.563-6.758,1.563l7.074,28.823c0,0,13.204,20.758,21.481,16.751c1.234-0.598,3.382-4.805,2.497-6.241
		c-0.909-1.472-14.913-24.7-14.913-24.7S182.255,136.295,182.443,136.378z"/>
	<path fill="#F5D4B7" d="M209.282,214.721c2.587,1.717,3.486,2.119,6.314,3.303c0.897,0.424,3.271-0.06,4.286-1.578
		c-0.018,0.008-0.035,0.029-0.05,0.041c-0.008,0.003-0.008,0.003-0.016,0.003c-0.065,0.04-14.079-10.956-15.906-11.606
		c-0.65-0.229-4.229,1.083-3.769,1.745c0.412,0.595,2.143,2.397,2.184,2.467C204.77,210.994,207.844,213.527,209.282,214.721"/>
	<path fill="#F5D4B7" d="M179.483,194.439l-23.436-13.416c0,0,0.685,6.646,0.68,6.75c0.004,0.004,0.004,0.004,0.007,0.011
		c1.71,1.528,4.387,3.36,4.811,3.649c0.156,0.103,1.245,0.82,1.479,1.082c0.288,0.313,3.179,2.368,3.399,2.521
		c0.211,0.145,3.333,1.867,5.227,2.874c0.066-0.037-1.316,1.097-1.296,1.062c-0.665,0.045-1.148,0.35-1.881,0.584
		c-3.285,1.846-1.336,5.685-1.025,8.358c0.628,2.254,1.422,6.167,4.344,6.532c2.226,0.267,7.317-1.125,10.009-1.678
		c0.382-0.675,4.284-0.916,4.236-0.861c0.689-0.206,1.613-0.531,1.893-0.479c0.168,0.027-0.609,0.854-1.062,1.697
		c-0.454,0.852-3.255,9.122-5.863,13.528c-0.875,1.805-0.46,1.06-0.994,2.37v0.005l5.286,1.21l8.54-21.68L179.483,194.439z"/>
	<path fill="#F5D4B7" d="M152.899,211.293c0.91,1.688,3.53,5.229,3.659,5.43c0.127,0.196,0.691,0.805,1.357,1.549
		c0.667,0.742,1.238,1.39,1.399,1.578c0.161,0.184,1.41,1.479,1.732,1.776c0.321,0.296,0.694,0.899,0.965,1.149
		c0.924,0.83,4.329,3.789,4.657,4.033c0.329,0.252,1.953,1.34,2.246,1.381c2.925,0.371,4.359-1.231,4.656-1.707
		c0.3-0.463,0.356-0.662,0.173-1.357c-0.005,0.05-11.291-8.432-18.779-24.738c-0.291-0.632-2.888-3.777-5.272-1.873
		c-1.958,1.564-0.542,5.313-0.542,5.313v0.021C149.893,205.383,152.12,209.854,152.899,211.293"/>
	<path fill="#F5D4B7" d="M130.739,212.9c0.755-2.825-5.507-2.195-5.959-2.299c-1.953,3.16-4.025,13.895-5.081,18.922
		c-0.183,0.565-0.429,1.476-0.718,2.651c1.438,1.461,2.908,2.89,4.418,4.271C124.489,232.205,130.539,213.652,130.739,212.9z"/>
</g>
<g id="Layer_1_1_">
	<g>
		<path fill="#A3080C" d="M312.664,139.461c0,0.007,0.004,0.015,0.004,0.018c0,0,0,0.007,0.004,0.015
			c-0.004-0.007-0.004-0.015-0.004-0.015C312.667,139.476,312.664,139.469,312.664,139.461"/>
		<path d="M298.431,179.919c-3.493-0.772-11.766-2.435-22.913-3.458c-11.145-1.014-20.267-1.885-21.52-2.021
			c-1.146-0.113-1.563-1.166-2.604-1.688c-3.777-1.894-10.917-3.651-15.391-5.228c-1.106-0.383-1.835-1.362-3.361-3.227
			c-0.93-1.135-1.559-1.646-2.353-2.367c-0.476-0.436-1.513-1.313-1.79-1.523c-0.271-0.219-0.46-0.848-0.227-2.067
			c0.233-1.225,0.966-6.002,0.905-11.564c-0.017-1.493,0.643-2.45,1.341-2.799c0.377-0.189,2.823-1.278,2.659-3.684
			c-0.173-2.436-0.925-5.832,1.034-10.613c1.896-4.633,4.264-12.9,4.55-18.354c0.303-5.794-1.151-9.531-3.438-11.555
			c-0.892-0.782-1.943-1.963-1.084-4.486c0.916-2.714,2.582-10.126,0.945-15.03c-0.366-1.088-0.782-1.096-1.031-1.228
			c-0.251-0.127-1.438-1.037-1.886-3.038c-0.601-2.637-2.527-12.012-9.798-21.542c-3.853-5.06-7.966-8.069-9.607-9.281
			c-1.126-0.732-3.104-2.109-5.467-3.367c-3.383-1.789-6.067-3.153-11.468-4.901c-0.512-0.161-1.667-0.515-3.195-0.922
			c-0.003,0-0.019,0-0.019,0s-4.601-1.231-9.576-1.812c-0.851-0.079-2.014-0.187-3.333-0.276c-5.123-0.3-6.992,0.015-9.656,0.283
			c-0.285,0.028-0.574,0.071-0.86,0.11c-0.531,0.071-1.081,0.153-1.655,0.242c-7.914,1.355-15.967,5.067-19.883,6.935
			c-2.211,1.05-4.167,2.143-5.965,3.167c-0.05,0.032-0.114,0.068-0.146,0.087c-0.464,0.283-1.189,0.688-1.897,1.076
			c-1.105,0.625-2.165,1.209-3.188,1.71c-3.17,1.542-5.958,2.331-7.996,3.038c-0.371,0.139-0.682,0.256-0.921,0.338
			c-1.471,0.572-2.406,1.164-2.578,2.139c-0.313,1.75,1.746,3.374,1.011,6.166c-1.812,6.865-9.56,13.453-10.801,14.213
			c-3.6,2.196-3.375,3.725-3.514,4.507c0,0.727,0.149,1.534,0.563,2.406c1.199,2.541,3.417,4.718,4.503,7.014
			c1.089,2.298,1.709,6.325,0.895,11.033c-0.776,4.552-1.021,5.563-1.426,6.397c-0.401,0.838-1.213,2.466-0.095,4.402
			c1.124,1.941,3.491,3.921,4.977,5.062c0.79,0.61,1.198,1.164,0.613,2.263c-0.965,1.799-0.718,6.043,0.196,8.417
			c1.379,3.622,2.999,7.075,4.502,9.294c1.504,2.218,4.188,5.992,5.769,7.357c1.573,1.374,1.789,3.755,1.758,5.233
			c-0.032,1.47-0.239,5.64,4.045,8.248c2.11,1.298,2.3,0.972,3.074,1.606c0.773,0.625,1.139,0.95,1.673,2.638
			c0.536,1.683,2.972,7.578,6.323,11.729c0.979,1.206,1.521,2.061,1.639,2.258s0.3,0.417-0.124,1.41
			c-0.423,0.993-2.114,6.652-3.465,12.502c-0.247,1.072-0.608,2.482-1.954,3.145c-1.349,0.649-4.359,2.313-5.455,2.918
			c-1.104,0.607-1.646,0.938-2.915,2.514c-0.564,0.701-0.976,1.113-1.331,1.542c-0.205,0.247-0.296,0.405-1.368,0.965
			c-0.928,0.481-14.71,5.331-29.324,14.271c-0.362,0.219-0.7,0.412-1.035,0.6c0.861,1.344,1.739,2.675,2.653,3.977
			c3.28-1.66,11.107-5.627,12.338-6.24c0.972-0.489,2.18-0.68,3.156-0.703c0.588-0.012,1.093,0.037,1.414,0.117
			c0.655,0.16,1.785,0.41,2.834,0.648c0.097,0.021,0.193,0.045,0.294,0.064c0.063,0.017,0.128,0.029,0.194,0.05
			c0.434,0.106,0.833,0.202,1.156,0.289c0.019,0.007,0.033,0.007,0.051,0.015c0.157,0.045,0.301,0.084,0.41,0.116
			c0.932,0.307,1.426,2.054,0.922,3.644c-0.089,0.299-0.379,1.307-0.805,2.797c-0.211,0.75-0.453,1.611-0.718,2.568
			c-0.267,0.959-0.557,2.012-0.864,3.13c-1.078,3.915-2.342,8.614-3.431,12.855c2.916,2.659,5.977,5.161,9.155,7.514
			c0.356-2.754,0.731-5.621,1.021-7.707c0.76-5.442,5.107-25.604,6.334-30.188c0.894-3.336,1.358-4.854,2.531-5.381
			c0.353-0.152,0.753-0.388,0.984-0.5c0.232-0.106,0.74-0.23,0.583,0.652c-0.179,1.049-1.084,5.327-2.416,19.209
			c-0.925,9.631-0.946,18.16-0.613,23.291c0.143,2.184,0.18,5.271,3.521,3.934c3.905-1.561,17.218-6.334,24.331-8.525
			c11.452-3.532,32.916-8.25,53.604-11.303l5.784-0.822c0,0,3.387,19.898,3.971,23.348l0.642,3.65l-0.636-3.65
			c-0.588-3.449-3.971-23.348-3.971-23.348c0.811-0.111,1.627-0.217,2.43-0.318c1.853-0.232,3.591-0.451,5.228-0.666l6.043-0.772
			c2.827-0.361,5.253-0.673,7.311-0.941c0,0,3.905,18.054,5.373,24.539c0.104,0.427,0.189,0.812,0.264,1.133l0.723,3.314
			c0.006,0,0.01,0,0.013,0l-0.719-3.314c-1.192-5.129-5.642-25.67-5.642-25.67l6.187-0.798c1.828-0.232,4.159-0.525,4.854-0.559
			c1.454-0.062,2.088-0.883,0.979-1.217c-0.801-0.234-2.651-0.42-3.589-0.441c-0.356-0.006-1.008-0.014-1.396-0.02
			c-1.431-0.024-1.841-0.308-2.154-2.418c-0.892-6.188-4.34-21.531-6.815-29.619c-2.396-7.805-2.988-10.052-3.565-11.77
			c-0.505-1.479,0.473-1.57,0.942-1.55c1.747,0.084,4.165,0.991,4.857,2.483c1.535,3.328,12.035,30.828,16.251,41.082
			c2.659,6.459,5.758,14.233,8.685,21.159c1.874-1.541,3.684-3.164,5.454-4.821c-5.446-11.976-17.572-39.104-23.965-52.832
			c-0.23-0.494-0.541-1.295-0.697-1.766c-0.056-0.156-0.078-0.297-0.078-0.421c0.008-0.876,1.166-0.997,1.739-0.94
			c2.257,0.226,22.76,1.578,28.357,2.111c3.693,0.35,7.379,0.913,9.841,1.354c0.571,0.104,1.073,0.199,1.497,0.283
			c0.525,0.104,0.921,0.188,1.177,0.258c1.825,0.478,5.048,1.752,8.03,3.352c1.234,0.657,2.639,1.615,4.144,2.77
			c0.453-1.287,0.904-2.576,1.314-3.879c-1.072-0.744-2.279-1.506-3.464-2.143C304.422,181.768,301.547,180.611,298.431,179.919
			 M131.483,111.927c-0.558,0.239-1.062,0.303-1.446-0.457c-0.936-1.849-1.645-5.141-1.917-7.279
			c-0.279-2.137-0.706-8.516-0.571-12.001c0.149-3.487-0.531-5.436-1.777-7.104c-1.25-1.666-2.054-2.822-2.359-3.384
			c-0.386-0.7-0.128-1.178,0.61-1.713c0.357-0.25,1.088-0.1,1.652-0.217c1.118-0.225,4.852-1.578,7.632-3.759
			c2.774-2.182,7.196-6.4,10.198-8.024c2.992-1.624,4.319-2.364,7.821-2.784c0.622-0.073,1.553,0.259,0.501,1.059
			c-1.051,0.8-4.42,1.995-8.351,7.924c-2.413,3.628-2.807,5.723-3.57,7.351c-0.768,1.627-1.501,2.087-2.716,3.405
			c-0.591,0.628-1.796,1.948-2.23,3.863c-0.422,1.916-2.166,8.667-1.142,18.878c0.121,1.189,0.61,2.771-0.504,3.346
			C132.625,111.388,132.035,111.69,131.483,111.927 M136.294,125.685c-0.593-0.421-3.02-3.707-4.202-7.357
			c-0.13-0.386-0.271-1.366,0.368-1.646c0.524-0.225,1.221-0.628,1.582-0.8c0.366-0.185,1.28-0.424,1.406,0.893
			c0.127,1.32,0.243,2.876,1.748,6.771c0.271,0.696,0.329,0.914,0.399,1.193C137.791,125.547,136.844,126.076,136.294,125.685
			 M141.238,113.28c-0.161,0.028-1.826,0.229-2.724,0.396c-0.558,0.103-1.132,0.311-1.194-0.226
			c-0.076-0.61-0.254-1.416-0.308-1.633c-0.048-0.227,0.061-0.441,0.33-0.505c0.661-0.153,3.218-0.582,3.465-0.595
			c0.246-0.003,0.497,0.081,0.604,0.592c0.097,0.513,0.22,1.06,0.249,1.282C141.689,112.819,141.753,113.201,141.238,113.28
			 M142.145,104.941c-0.153-0.778-0.369-2.11-0.299-2.939c0.023-0.33,0.124-1.156,0.521-1.602c0.562-0.635,1.306-1.213,1.789-1.604
			c0.878-0.72,0.696-2.582,0.76-3.651c0.194-3.105-0.083-12.911,6.281-22.292c0.246-0.356,0.495-0.685,0.741-0.996
			c0.075-0.093,0.148-0.179,0.224-0.271c0.184-0.215,0.366-0.422,0.553-0.614c0.08-0.086,0.157-0.168,0.24-0.247
			c0.225-0.221,0.453-0.433,0.682-0.624c0.032-0.026,0.063-0.055,0.093-0.082c0.258-0.208,0.517-0.396,0.772-0.576
			c0.094-0.061,0.187-0.12,0.279-0.175c0.178-0.117,0.356-0.221,0.535-0.323c0.102-0.055,0.203-0.112,0.307-0.165
			c0.195-0.1,0.396-0.193,0.595-0.283c0.076-0.032,0.15-0.068,0.226-0.103c0.258-0.108,0.521-0.204,0.785-0.294
			c0.111-0.039,0.221-0.071,0.333-0.105c0.176-0.056,0.353-0.108,0.527-0.157c0.061-0.015,0.114-0.036,0.176-0.051
			c0,0.003,0,0.003,0,0.007c1.296-0.346,2.624-0.539,3.965-0.767c3.788-0.643,8.204-0.042,10.475,0.681
			c1.805,0.571,2.72,1.01,3.323,0.44c0.605-0.567,2.188-2.36,2.857-2.996c0.093-0.09,0.165-0.188,0.216-0.286
			c0.02-0.033,0.03-0.067,0.046-0.1c0.024-0.064,0.045-0.131,0.056-0.198c0.004-0.037,0.012-0.075,0.012-0.115
			c0-0.064-0.008-0.128-0.018-0.196c-0.008-0.033-0.008-0.071-0.024-0.104c-0.024-0.093-0.064-0.183-0.122-0.269
			c-0.146-0.245-0.382-0.464-0.671-0.638c-0.736-0.433-8.129-5.858-18.095-6.101c-9.739-0.244-17.642,3.202-19.738,3.924
			c-0.424,0.143-0.642,0.217-0.891,0.22c-0.247,0.007-1.097-0.283-0.782-0.896c0.345-0.656,1.209-1.666,2.107-2.484
			c0.941-0.849,5.55-5.187,10.101-7.195c0.841-0.369,1.046-0.522,1.586-0.732c0.689-0.261,1.097-1.814-0.426-1.818
			c-1.561-0.011-2.181,0.164-3.005,0.292c-0.825,0.137-1.278-0.231-0.758-0.938c0.515-0.705,1.532-1.487,3.37-2.484
			c3.987-2.174,11.282-4.464,14.73-5.219c4.498-0.984,5.047-1.048,8.032-1.231c2.792-0.161,5.023,0.036,6.08,0.079
			c8.94,0.339,19.24,3.299,27.212,8.548c7.579,5.578,18.488,14.869,20.651,37.807c0.259,2.753,0.076,4.313-0.029,5.002
			c-0.094,0.689-0.876,1.956-1.563,0.517c-2.262-4.74-5.757-10.943-9.703-16.823c-0.233-0.349-0.472-0.518-0.665-0.542
			c-0.08-0.017-0.148-0.003-0.22,0.026c-0.017,0.011-0.027,0.029-0.047,0.042c-0.038,0.029-0.078,0.065-0.106,0.115
			c-0.016,0.035-0.032,0.071-0.045,0.108c-0.018,0.05-0.027,0.105-0.035,0.161c-0.009,0.05-0.017,0.095-0.017,0.146
			c0,0.117,0.008,0.245,0.041,0.386c0.1,0.416,1.354,6.636,1.401,7.502c0.054,0.864-0.368,2.984,2.854,6.897
			c1.315,1.605,2.483,2.978,3.083,5.346c0.591,2.36,0.793,3.37,0.797,3.621c0.009,0.247,0.292,0.95-0.848,0.957
			c-1.134,0.003-5.458-0.311-7.31-0.269c-1.854,0.044-14.639,1.298-19.396,2.309c-4.757,1.012-7.316,2.21-9.76,4.777
			c-0.588,0.618-1.411,1.193-1.598,1.246c-0.177,0.05-0.798,0.036-2.01-0.046c-1.208-0.079-3.302,0.218-4.401,0.714
			c-1.107,0.495-1.896,0.956-3.229,0.413c-1.905-0.771-5.174-4.291-13.66-3.876c-5.107,0.25-7.725,0.39-11.27,0.914
			c-0.207,0.033-0.42,0.064-0.633,0.097c-0.136,0.022-0.274,0.043-0.412,0.067c-0.074,0.011-0.153,0.022-0.231,0.036
			c-1.442,0.236-3.074,0.54-5.086,0.932c-0.279,0.053-0.553,0.109-0.842,0.164C142.833,106.113,142.291,105.761,142.145,104.941
			 M220.286,102.753c0,0.271-0.329,0.55-0.665,0.607c-0.333,0.053-2.615,0.262-2.979,0.289c-0.357,0.025-0.709-0.172-0.738-0.509
			c-0.029-0.333-0.104-1.122-0.124-1.328c-0.037-0.194-0.045-0.464,0.42-0.524c0.271-0.033,2.651-0.247,3.529-0.351
			c0.329-0.039,0.544,0.258,0.552,0.546C220.279,101.77,220.279,102.485,220.286,102.753 M209.607,105.315
			c-0.706-0.496-1.947-1.278-2.699-1.553c-0.52-0.186-0.338-0.834,0.401-0.939c2.572-0.374,4.223-0.374,5.502,0.424
			c0.936,0.579,1.557,1.704,1.271,2.696c-0.338,1.139-0.782,0.892-1.341,0.882C212.182,106.815,210.305,105.815,209.607,105.315
			 M211.094,110.334c-0.451,0.305-1.932,0.033-2.47-0.177c-1.103-0.433-1.886-0.732-3.42-1.706c-1.002-0.635-2.743-0.95-4.268-0.49
			c-1.003,0.304-1.812,0.558-2.695,0.899c-0.886,0.34-1.067-0.468-0.835-0.813c0.229-0.345,1.631-1.987,3.491-2.685
			c0.392-0.15,1.188-0.232,1.578-0.24c1.199-0.035,2.686,0.55,3.812,1.372c1.135,0.828,2.938,2.178,4.121,2.684
			C210.964,109.417,212.168,109.592,211.094,110.334 M174.112,150.264c-4.487,1.571-5.745-0.007-6.146-0.476
			c-0.397-0.467,0.093-0.924,0.568-1.146c1.067-0.497,2.496-1.578,3.217-2.282c0.726-0.703,2.135-3.151,3.151-4.011
			c0.483-0.411,3.088-1.296,5.049-0.362c2.331,1.111,5.96,1.226,8.188,0.936c2.228-0.3,3.075-1.927,3.559-2.889
			c0.482-0.969,1.664-1.324,2.285-1.58c1.71-0.699,3.973-3.045,4.205-3.284c0.23-0.247,0.937-0.593,2.059,0.064
			c2.042,1.2,3.08,2.788,4.977,4.941c1.896,2.155,4.14,2.492,4.797,2.533c0.658,0.042,1.066,0.804,1.098,1.014
			c0.036,0.209-0.512,0.938-0.921,1.246c-0.41,0.306-0.637,0.85-4.268,0.937C187.715,146.355,179.518,148.372,174.112,150.264
			 M198.819,152.457c-1.081,0.559-4.296,1.771-5.896,2.078c-1.604,0.308-6.7,1.341-7.561,1.41c-1.07,0.082-2.571-0.237-3.873-1.129
			c-0.262-0.182-0.617-0.881,0.333-1.021c1.763-0.262,4.609-1.584,14.961-2.111c1.112-0.058,1.635-0.08,1.901-0.086
			S199.907,151.896,198.819,152.457 M174.836,175.439c-3.614,0.596-13.238-2.229-19.498-17.672
			c-1.612-3.973,0.156-7.925,1.708-8.724c0.92-0.468,1.419-0.658,1.733-0.736c0.34-0.086,1.979-0.3,2.165,1.543
			c0.146,1.491,3.041,13.73,6.933,17.777c0.959,1.003,1.718,0.94,1.965-0.095c0.213-0.949,0.633-2.199,0.755-2.676
			c0.085-0.344,1.023-1.381,1.557-0.06c1.145,2.808,2.526,6.483,3.433,7.955C176.474,174.189,176.188,175.216,174.836,175.439
			 M175.549,135.061c0.341,0.472,0.551,1.329,0.524,1.707c-0.035,0.437-1.527,1.229-3.08-0.513c-1.553-1.746-1.25-4.159-0.606-5.184
			c1.024-1.635,3.038-0.821,2.844-0.237C174.557,132.853,175.204,134.586,175.549,135.061 M164.012,112.447
			c-1.161-0.038-2.41-0.181-4.53,0.604c-2.373,0.877-3.898,2.021-5.002,2.698c-1.135,0.707-2.334,1.011-2.736,1.04
			c-0.399,0.034-1.856-0.157-0.853-1.212c0.266-0.289,0.904-0.506,1.876-1.213c0.692-0.511,1.208-0.875,1.997-1.54
			c1.404-1.198,4.271-2.93,5.521-3.084c0.917-0.109,2.537,0.064,3.501,0.853C164.79,111.417,165.176,112.484,164.012,112.447
			 M144.047,114.504c0.122-0.76,0.953-2.764,2.704-3.345c0.236-0.071,1.108-0.354,1.838-0.542c0.86-0.217,1.784-0.408,2.255-0.493
			c1.268-0.221,1.534,0.743,0.737,1.372c-0.522,0.416-1.357,0.958-2.096,1.556c-1.122,0.917-2.199,1.938-3.032,2.63
			C145.438,116.528,143.795,116.064,144.047,114.504 M149.994,136.325c-0.003-0.003-0.007-0.007-0.007-0.007
			c-0.007-0.011-0.011-0.018-0.018-0.028c-0.314-0.441-0.607-0.904-0.882-1.375c-0.058-0.104-0.114-0.21-0.175-0.314
			c-0.272-0.506-0.529-1.018-0.729-1.556c-0.394-1.043,0.265-1.197,0.704-0.97c0.437,0.234,1.717,0.98,3.085,1.27
			c0.835,0.171,1.331-0.229,1.526-0.831c0.029-0.09,0.067-0.201,0.108-0.322c0.022-0.053,0.042-0.109,0.06-0.168
			c0.012-0.035,0.021-0.071,0.035-0.109c0.019-0.065,0.033-0.129,0.047-0.197c0.013-0.035,0.017-0.071,0.021-0.104
			c0.017-0.069,0.023-0.137,0.032-0.208c0.004-0.035,0.004-0.068,0.008-0.106c0-0.069-0.008-0.137-0.017-0.208
			c-0.003-0.031-0.007-0.064-0.015-0.093c-0.017-0.075-0.046-0.146-0.08-0.217c-0.014-0.022-0.02-0.046-0.031-0.064
			c-0.048-0.082-0.111-0.158-0.188-0.229c-0.103-0.089-0.229-0.172-0.394-0.236c-1.191-0.479-4.567-1.545-7.104-6.261
			c-0.367-0.667-0.02-1.235,0.227-1.434c0.248-0.197,1.131-0.76,1.555-1.021c0.427-0.262,1.005-0.232,1.608,0.185
			c0.579,0.415,1.838,1.332,2.849,1.243c0.938-0.092,1.031-0.477,1.198-0.72c0.662-0.965,2.453-4.47,7.149-4.527
			c1.938-0.025,3.753,0.154,4.402,0.114c0.643-0.042,2.935-0.249,4.283-1.167c1.329-0.914,1.896-0.256,1.128,0.744
			c-0.113,0.149-0.217,0.281-0.313,0.413c-0.039,0.047-0.067,0.089-0.103,0.133c-0.104,0.139-0.193,0.271-0.272,0.397
			c-0.292,0.495-0.329,0.924,0.217,1.512c0.857,0.911,1.08,1.075,1.358,1.29c0.124,0.099,0.271,0.157,0.444,0.161
			c0.071,0,0.149-0.015,0.229-0.036c0.033-0.011,0.064-0.011,0.104-0.025c0.118-0.053,0.243-0.125,0.381-0.241
			c0.49-0.433,0.818-0.691,1.246-1.243c0.318-0.407,0.586,0.003,0.509,0.641c-0.063,0.497,0.16,3.685-3.313,7.604
			c-0.114,0.132-0.378,0.349-0.707,0.628c-0.078,0.063-0.152,0.127-0.238,0.203c-0.042,0.036-0.085,0.079-0.129,0.115
			c-0.107,0.094-0.216,0.195-0.329,0.299c-0.088,0.082-0.179,0.181-0.27,0.271c-0.093,0.093-0.183,0.179-0.276,0.279
			c-0.057,0.061-0.113,0.131-0.172,0.199c-0.116,0.132-0.235,0.265-0.352,0.411c-0.036,0.049-0.072,0.1-0.104,0.146
			c-0.132,0.172-0.259,0.345-0.375,0.527c-0.146,0.236-0.285,0.482-0.403,0.74c-0.968,2.062-0.842,2.742-0.946,3.494
			c-0.095,0.745-0.673,1.042-1.324,1.343c-0.393,0.18-1.433,0.782-2.586,1.655l0.006-0.006c-0.345,0.259-0.696,0.548-1.045,0.846
			c-0.067,0.061-0.131,0.117-0.194,0.178c-0.348,0.307-0.691,0.632-1.009,0.971c-0.211,0.221-0.427,0.416-0.645,0.592
			c-0.075,0.059-0.145,0.104-0.22,0.157c-0.151,0.111-0.311,0.215-0.467,0.306c-0.082,0.048-0.17,0.093-0.251,0.13
			c-0.157,0.079-0.313,0.143-0.476,0.198c-0.085,0.029-0.167,0.065-0.253,0.086c-0.042,0.011-0.082,0.029-0.12,0.042
			c-0.101,0.022-0.202,0.025-0.302,0.04c-0.124,0.021-0.248,0.046-0.375,0.053c-0.14,0.007-0.281,0-0.424-0.007
			c-0.123-0.014-0.246-0.014-0.365-0.027c-0.147-0.022-0.292-0.068-0.436-0.108c-0.122-0.031-0.243-0.056-0.366-0.1
			c-0.138-0.053-0.272-0.129-0.41-0.196c-0.133-0.064-0.259-0.115-0.387-0.194c-0.012-0.01-0.024-0.013-0.036-0.02
			c-0.231-0.147-0.468-0.318-0.704-0.512c-0.61-0.524-1.277-1.134-1.938-1.8c-0.018-0.02-0.035-0.038-0.052-0.053
			c-0.019-0.018-0.037-0.04-0.054-0.061c-0.34-0.344-0.68-0.71-1.01-1.092C151.094,137.71,150.323,136.782,149.994,136.325
			 M191.748,209.568c-0.214,1.109-1.12,4.851-4.444,12.549c-0.226,0.519-0.442,1.02-0.656,1.503
			c-0.051,0.112-0.104,0.221-0.153,0.335c-0.082,0.186-0.167,0.373-0.249,0.547c-0.008,0.016-0.012,0.029-0.018,0.045
			c-0.121,0.268-0.243,0.52-0.368,0.768c0,0-0.007,0.009-0.007,0.017c-0.017,0.028-0.033,0.062-0.054,0.094
			c-0.044,0.089-0.09,0.173-0.134,0.257c-0.059,0.11-0.116,0.229-0.18,0.336c0,0.012-0.004,0.017-0.007,0.021
			c-0.017,0.021-0.029,0.044-0.045,0.072c-0.057,0.099-0.139,0.242-0.143,0.248c-0.008,0.016-0.018,0.029-0.025,0.045
			c0,0,0,0,0,0.008c-0.042,0.063-0.079,0.124-0.116,0.183c-0.012,0.021-0.021,0.044-0.033,0.063
			c-0.008,0.008-0.013,0.018-0.024,0.028c-0.051,0.082-0.104,0.162-0.155,0.248c-0.012,0.012-0.021,0.021-0.029,0.032
			c-0.059,0.089-0.12,0.173-0.179,0.257c-0.003,0-0.014,0.016-0.023,0.021c-0.05,0.069-0.104,0.14-0.157,0.205
			c-0.015,0.017-0.023,0.028-0.035,0.036c-0.061,0.082-0.123,0.145-0.18,0.214c-0.009,0-0.017,0.011-0.022,0.021
			c-0.033,0.033-0.071,0.066-0.104,0.104h-0.003c-0.018,0.021-0.039,0.041-0.061,0.059c-0.012,0.012-0.028,0.021-0.04,0.037
			c-0.064,0.059-0.125,0.114-0.188,0.156c-0.007,0.007-0.011,0.011-0.021,0.017c-0.057,0.048-0.116,0.085-0.177,0.122
			c-0.016,0.012-0.029,0.021-0.045,0.029c-0.012,0.007-0.021,0.012-0.028,0.017c-0.014,0.011-0.024,0.017-0.035,0.017
			c-0.045,0.029-0.09,0.055-0.136,0.082c0,0-0.008,0-0.016,0.004c-0.059,0.031-0.123,0.054-0.189,0.076
			c-0.016,0.008-0.031,0.016-0.05,0.021c-0.07,0.021-0.138,0.04-0.214,0.059c-0.689,0.148-1.429,0.256-1.859,0.33
			c-0.064,0.006-0.507,0.079-0.543,0.092c-0.181,0.026-0.375,0.057-0.584,0.093c0,0,0,0,0-0.005
			c-4.991,0.841-18.566,3.179-24.863,4.451c-4.177,0.834-3.766-1.271-4.814-5.067c-0.44-1.597-1.991-15.72-1.186-24.585
			c0.271-2.942,0.4-3.805,0.928-4.131c0.527-0.324,1.336-0.852,1.578-0.92c0.236-0.063,0.956-0.252,1.292,0.354
			c0.329,0.6,6.426,12.969,10.41,17.449c3.536,3.992,6.021,6.889,9.002,8.834c0.197,0.132,0.366,0.213,0.52,0.263
			c0.017,0.007,0.033,0.017,0.052,0.021c0.07,0.021,0.135,0.033,0.195,0.041c0.06,0.008,0.115,0.004,0.168,0
			c0.016-0.004,0.029-0.004,0.044-0.008c0.1-0.021,0.179-0.069,0.237-0.131c0.008-0.009,0.016-0.019,0.026-0.029
			c0.056-0.069,0.097-0.156,0.118-0.252c0.003-0.016,0.003-0.032,0.003-0.049c0.082-0.461-0.138-1.158-0.575-1.632
			c-0.658-0.709-3.381-3.511-6.969-8.614c-4.642-6.588-7.785-16.309-8.632-19.422c-0.553-2.039-0.863-5.255-0.812-7.818
			c-0.003,0-0.008,0-0.008,0c0.005-0.113,0.008-0.213,0.014-0.321c0.003-0.081,0.007-0.16,0.011-0.245
			c0.008-0.172,0.017-0.343,0.025-0.508c0.018-0.242,0.036-0.477,0.064-0.693c0.012-0.097,0.024-0.181,0.035-0.271
			c0.024-0.151,0.047-0.301,0.068-0.436c0.016-0.082,0.031-0.156,0.05-0.229c0.04-0.197,0.085-0.38,0.144-0.538
			c0.722-2.063,1.324-1.842,1.964-1.15c0.64,0.697,6.4,5.926,15.898,10.182c2.018,0.904,3.221,1.318,3.495,1.615
			c0.272,0.289,0.707,0.899-0.157,1.104c-0.853,0.201-3.386,0.292-6.037,1.34c-0.154,0.063-0.297,0.124-0.427,0.184
			c-0.929,0.416-1.362,0.834-1.561,1.281c-0.039,0.088-0.068,0.18-0.089,0.271c-0.017,0.062-0.032,0.135-0.039,0.201
			c-0.011,0.102-0.016,0.203-0.011,0.306c0,0.067-0.005,0.137,0.003,0.206c0.008,0.131,0.021,0.263,0.035,0.4
			c0.032,0.235,0.064,0.478,0.089,0.741c0.14,1.439,0.389,2.466,0.571,4.392c0.18,1.934,0.068,3.68,1.011,4.494
			c0.938,0.804,2.221,1.281,5.644,0.617c3.248-0.634,4.33-0.91,4.714-0.921c0.378-0.013,1.29-0.165,0.733,0.898
			c-0.054,0.103-0.123,0.226-0.205,0.376c-0.749,1.334-2.563,4.337-3.182,6.339c-0.685,2.206-0.823,2.817-0.883,3.192
			c-0.056,0.381,0.206,1.11,0.88,0.293c0.674-0.818,2.005-3.868,5.35-7.752c0.449-0.52,0.859-0.976,1.246-1.396
			c0.003,0,0.007-0.009,0.016-0.016c0.303-0.325,0.583-0.621,0.854-0.893c0.074-0.076,0.146-0.146,0.217-0.214
			c0.229-0.223,0.442-0.428,0.642-0.622c0.053-0.045,0.11-0.099,0.157-0.145c0.499-0.45,0.928-0.799,1.302-1.071
			c0.038-0.021,0.071-0.046,0.105-0.069c0.145-0.106,0.287-0.201,0.419-0.281c0.036-0.021,0.075-0.047,0.11-0.072
			c0.133-0.082,0.257-0.148,0.371-0.213c0.019-0.016,0.046-0.029,0.067-0.04c0.016-0.005,0.026-0.017,0.037-0.021
			c0.135-0.062,0.249-0.128,0.363-0.181C191.778,207.45,192.031,208.089,191.748,209.568 M197.285,226.564
			c-0.536,0.123-2.852,0.475-3.209,0.48c-0.353,0.008-0.652-0.32-0.502-0.575c0.149-0.247,1.743-2.321,2.619-5.932
			c0.146-0.588,0.516-0.998,0.754-0.152c0.185,0.617,0.899,3.687,1.064,4.841C198.035,225.43,198.159,226.359,197.285,226.564
			 M198.257,197.125c-1.521,0.57-3.213-1.139-4.583-2.053c-3.076-2.104-5.908-4.133-8.231-6.971
			c-3.56-4.345-3.227-7.373-2.192-12.984c0.718-3.986-0.584-7.735-0.868-8.264c-0.28-0.529,0.037-1.066,0.879-0.674
			c0.841,0.396,1.646,1.623,2.51,2.676c0.856,1.053,1.047,0.305,1.118-0.409c0.164-1.65-0.208-2.974-0.414-3.74h-0.005
			c-0.012-0.037-0.021-0.084-0.028-0.124c-0.121-0.457-0.546-1.477-1.442-1.662c-1.199-0.252-2.379-0.357-3.019-0.818
			c-0.298-0.215-0.638-0.652-0.301-0.975c0.61-0.592,1.499-1.377,2.342-1.666c1.146-0.395,2.25-0.993,3.703-0.984
			c9.805,0.062,12.448-2.207,16.196-3.763c0.735-0.309,1.177-0.446,1.806-0.249c0.632,0.19,2.347,0.834,2.778,1.596
			c0.436,0.766,0.512,3.95,1.35,6.248c0.825,2.306,2.23-0.084,2.54-1.068c0.295-0.991,0.411-3.348,0.427-3.942
			c0.016-0.597,0.188-3.108,0.979-3.956c1.567-1.674,1.938-3.654,2.126-4.429c0.169-0.694,0.301-2.636-0.044-5.395
			c-0.036-0.34-0.087-0.696-0.146-1.061c-0.529-3.327-1.199-3.608-2.102-4.213c-0.904-0.603-1.853-0.342-4.155-1.92
			c-2.062-1.417-3.932-3.894-5.491-5.405c-1.554-1.509-4.011-3.026-6.604-3.293c-0.163-0.015-0.307-0.018-0.438-0.018
			c-0.011,0-0.018,0-0.029,0c-0.115,0.007-0.224,0.015-0.316,0.035c-0.019,0.003-0.029,0.011-0.05,0.015
			c-0.083,0.015-0.156,0.036-0.221,0.062c-0.018,0.013-0.033,0.024-0.055,0.032c-0.049,0.029-0.099,0.057-0.138,0.089
			c-0.019,0.018-0.033,0.036-0.054,0.056c-0.028,0.029-0.058,0.061-0.079,0.097c-0.018,0.025-0.028,0.057-0.044,0.086
			c-0.012,0.032-0.027,0.057-0.035,0.086c-0.016,0.045-0.021,0.09-0.028,0.139c0,0.018-0.003,0.033-0.003,0.053
			c-0.003,0.064-0.003,0.13,0.003,0.197h-0.003c0.053,0.641,0.515,1.423,0.632,1.744c0.164,0.437,0.579,1.772-0.157,2.551
			c-0.741,0.778-5.073,4.654-9.131,4.557c-1.834-0.042-3.363-0.418-4.647-0.967c0.008,0.007,0.013,0.013,0.017,0.02
			c-0.054-0.024-0.102-0.053-0.157-0.079c-0.307-0.135-0.598-0.282-0.875-0.436c-0.045-0.025-0.097-0.047-0.146-0.075
			c-0.312-0.179-0.598-0.368-0.869-0.561c-0.082-0.061-0.161-0.121-0.239-0.179c-0.207-0.157-0.404-0.317-0.588-0.482
			c-0.055-0.05-0.118-0.099-0.172-0.146c-0.221-0.21-0.427-0.416-0.617-0.622c-0.047-0.056-0.089-0.109-0.138-0.16
			c-0.146-0.17-0.28-0.338-0.41-0.502c-0.04-0.053-0.078-0.1-0.115-0.154c-0.146-0.207-0.28-0.404-0.396-0.593
			c-0.016-0.024-0.022-0.042-0.038-0.064c-0.101-0.173-0.187-0.338-0.263-0.488c-0.018-0.04-0.038-0.076-0.056-0.119
			c-0.076-0.161-0.14-0.318-0.184-0.45c-0.592-1.781,0.879-5.989,0.826-9.003c-0.018-1.32-0.291-3.854-0.494-5.612
			c-0.201-1.759,0.726-4.126,1.156-4.7c0.098-0.126,0.243-0.247,0.411-0.365c0.042-0.032,0.09-0.057,0.135-0.086
			c0.157-0.103,0.336-0.2,0.54-0.289c0.029-0.015,0.058-0.029,0.09-0.046c0.198-0.082,0.411-0.168,0.643-0.243v0.011
			c0.378-0.13,0.786-0.25,1.231-0.351c1.445-0.322,3.136,0.394,3.569,1.586c1.511,4.16,3.184,5.039,3.745,5.312
			c0.569,0.277,1.462-0.546,1.813-0.85c0.354-0.294,1.202-1.41,0.825-1.899c-0.581-0.744-0.898-1.2-1.066-1.665
			c-0.285-0.785,0.74-0.802,0.983-0.692c3.092,1.31,4.574,1.585,7.567,1.485c2.989-0.093,7.637-2.062,8.212-2.073
			c0.469-0.011,1.396,0.277,1.744,0.76c0.058,0.083,0.136,0.199,0.208,0.314c0.301,0.446,0.702,1.043,1.061,1.167
			c0.017,0.003,0.024,0.011,0.04,0.015c0.442,0.109,1.498,0.029,2.058,0.053c0.756,0.026,2.067-0.236,2.029,1.152
			c-0.083,3.707-3.013,6.019-3.278,6.244c-0.104,0.093-0.161,0.212-0.215,0.333c-0.015,0.033-0.043,0.067-0.05,0.104
			c-0.016,0.068-0.028,0.136-0.028,0.2c0,0.067,0.008,0.127,0.021,0.179c0.069,0.221,0.387,1.021,0.522,1.238
			c0.049,0.079,0.105,0.154,0.182,0.225c0.018,0.018,0.049,0.033,0.07,0.053c0.059,0.044,0.114,0.085,0.182,0.115
			c0.033,0.018,0.077,0.022,0.116,0.035c0.062,0.015,0.132,0.029,0.201,0.025c0.044,0,0.099-0.015,0.143-0.025
			c0.11-0.023,0.213-0.045,0.329-0.117c2.483-1.485,3.493-3.24,4.574-5.447c1.077-2.196,1.645-9.45,1.707-10.639
			c0.061-1.198,0.438-1.935,1.024-2.417c0.585-0.484,3.485-2.342,3.896-2.437c0.416-0.097,0.892-0.137,1.358,0.945
			c0.477,1.088,1.514,7.775,1.71,8.804c0.224,1.092,0.789,0.962,1.074,0.753c0.62-0.454,1.069-1.011,1.622-1.96
			c0.57-0.95,0.153-2.26-0.402-2.87c-0.547-0.613-1.413-1.593-1.045-2.566c0.841-2.21,2.605-2.099,3.08-2.021
			c0.464,0.079,2.253,0.884,2.576,5.701c0.468,7.135-2.44,14.513-3.135,16.384c-1.534,4.159-1.856,6.991-2.094,8.339
			c-0.229,1.342-1.249,1.1-1.495,0.882c-0.247-0.217-0.566-1.256-0.725-1.411c-0.159-0.153-0.563-0.075-0.825,1.071
			c-0.263,1.143-1.139,2.731-1.651,3.595c-0.345,0.561-0.28,1.365-0.197,1.989c0.154,1.213,0.785,5.854,0.592,11.13
			c-0.35,9.39-3.487,15.304-5.829,18.398c-5.51,7.285-10.677,10.329-11.296,10.762c-0.798,0.557-2.131,0.469-2.576,0.321
			c-0.453-0.128-0.853-0.597-1.699-1.201c-0.069-0.055-0.14-0.083-0.197-0.112c-0.672-0.313-0.772,0.635-0.767,0.883
			c0.007,0.264,0.415,1.238,0.646,2.184c0.439,1.784-0.551,3.938-1.57,5.641c-1.454,2.404-3.077,5.049-2.737,7.953
			C198.473,196.854,198.473,197.041,198.257,197.125 M244.938,199.902c0.83,4.771,1.765,10.587,2.818,17.716
			c0.056,0.376,0.096,0.698,0.124,0.998c0.009,0.036,0.017,0.077,0.017,0.112c0.028,0.281,0.044,0.539,0.044,0.75
			c0,0.021-0.003,0.041-0.003,0.058c0,0.095,0,0.196-0.008,0.278c-0.013,0.082-0.025,0.148-0.041,0.22
			c0,0.028-0.009,0.058-0.009,0.084c-0.035,0.146-0.086,0.271-0.151,0.375c-0.008,0.017-0.021,0.028-0.037,0.05
			c-0.059,0.082-0.131,0.154-0.208,0.214c-0.025,0.019-0.049,0.038-0.078,0.06c-0.099,0.063-0.208,0.115-0.344,0.16
			c-0.032,0.016-0.081,0.021-0.124,0.037c-0.104,0.031-0.215,0.062-0.337,0.094c-0.076,0.018-0.152,0.029-0.229,0.052
			c-0.16,0.032-0.332,0.065-0.515,0.102c-0.336,0.069-0.83,0.14-1.172,0.169c-0.594,0.057-1.283,0.115-2.035,0.182
			c-7.271,0.666-21.499,2.108-32.897,3.545c-0.215,0.021-0.435,0.044-0.67,0.08c-0.887,0.125-1.4-0.018-1.472-0.889
			c-0.055-0.8-1.389-8.713-5.417-15.453c-0.37-0.621-0.76-1.234-1.173-1.83c-0.46-0.662,0.223-1.164,0.873-0.936
			c1.825,0.643,6.882,2.955,14.095,8.117c1.841,1.314,2.319,1.725,2.732,2.075c0.055,0.048,0.14,0.095,0.215,0.132
			c0.028,0.015,0.063,0.021,0.099,0.036c0.05,0.019,0.114,0.036,0.176,0.052c0.033,0.007,0.065,0.016,0.1,0.018
			c0.068,0.008,0.139,0.012,0.201,0.008c0.028,0,0.055,0,0.077,0c0.083-0.012,0.164-0.036,0.229-0.078
			c0.168-0.105,0.246-0.312,0.114-0.664c-0.448-1.266-2.86-3.748-9.031-9.475c-0.88-0.814-0.896-1.158,0.018-1.254
			c0.91-0.087,3.384,0.025,4.698-0.029c1.319-0.058,4.263-0.14,3.688-3.991c-0.442-2.985-0.789-6.072-0.845-6.996
			c-0.05-0.921-0.213-2.644-2.367-2.886c-2.141-0.246-5.731,0.25-8.952,1.38c-0.89,0.31-1.202-0.103-0.544-0.701
			c0.653-0.597,6.31-4.274,11.128-9.81c5.298-6.093,7.628-10.576,8.949-14.652c0.239-0.725,0.546-0.479,0.842-0.313
			c0.292,0.172,2.278,1.779,2.983,5.731c0.69,3.96,2.062,9.455-0.354,23.885c-1.327,7.906-2.948,12.575-3.326,13.688
			c-0.379,1.104,0.271,1.727,1.002,0.735c1.703-2.325,3.954-8.769,5.854-16.177c1.871-7.311,2.55-13.577,2.835-17.594v-0.004
			c0.029-0.369,0.056-0.717,0.073-1.049l0.013-0.136c0.017-0.325,0.031-0.638,0.055-0.917c0-0.172,0.021-0.307,0.05-0.431
			c0.008-0.037,0.021-0.065,0.033-0.099c0.018-0.056,0.033-0.116,0.054-0.162c0-0.008,0.009-0.008,0.009-0.016
			c0.036-0.068,0.081-0.127,0.119-0.172c0.014-0.015,0.021-0.029,0.033-0.037c0.036-0.031,0.069-0.047,0.103-0.063
			c0.025-0.013,0.051-0.029,0.074-0.038c0.021-0.003,0.036-0.003,0.059-0.008c0.041-0.008,0.081-0.016,0.115-0.016
			c0.017,0,0.029,0,0.049,0.008c0.018,0,0.041,0,0.056,0c0.013,0,0.021,0.013,0.027,0.013c0.146,0.024,0.28,0.084,0.384,0.128
			c0.378,0.146,2.043,0.628,2.911,4.625c0.036,0.16,0.072,0.336,0.115,0.51c0.008,0.059,0.021,0.124,0.036,0.184
			c0.042,0.16,0.078,0.32,0.116,0.496l0.009,0.029C241.72,183.355,243.024,188.793,244.938,199.902"/>
		<polygon points="214.2,206.711 215.01,206.711 215.01,208.779 215.5,208.779 215.5,206.711 216.307,206.711 216.307,206.296 
			214.2,206.296 		"/>
		<polygon points="218.065,208.07 217.44,206.296 216.734,206.296 216.734,208.779 217.188,208.779 217.188,206.78 217.879,208.779 
			218.276,208.779 218.957,206.78 218.957,208.779 219.409,208.779 219.409,206.296 218.704,206.296 		"/>
	</g>
</g>
</svg>
