<?xml version="1.0" encoding="utf-8"?>
<!-- Generator: Adobe Illustrator 14.0.0, SVG Export Plug-In . SVG Version: 6.00 Build 43363)  -->
<!DOCTYPE svg PUBLIC "-//W3C//DTD SVG 1.1//EN" "http://www.w3.org/Graphics/SVG/1.1/DTD/svg11.dtd">
<svg version="1.1"
	 id="nestle" xmlns:rdf="http://www.w3.org/1999/02/22-rdf-syntax-ns#" xmlns:cc="http://creativecommons.org/ns#" xmlns:svg="http://www.w3.org/2000/svg" xmlns:dc="http://purl.org/dc/elements/1.1/"
	 xmlns="http://www.w3.org/2000/svg" xmlns:xlink="http://www.w3.org/1999/xlink" x="0px" y="0px" width="400px" height="300px"
	 viewBox="0 0 400 300" enable-background="new 0 0 400 300" xml:space="preserve">
<g id="g15902" transform="matrix(2.1025538,0,0,-2.1025538,-945.43842,1967.8152)">
	<g>
		<g id="g15904">
			<g id="g15910" transform="translate(500.6749,698.2117)">
				<path id="path15912" fill="#939CA1" d="M50.507,178.733c-0.236-0.286-0.369-0.605-0.369-1.161v-15.274h-0.085
					c0,0-8.36,14.904-8.764,15.593c-0.286,0.489-0.606,0.825-1.026,1.077c-0.421,0.235-0.858,0.386-1.699,0.386h-2.758
					c-0.64,0-1.043-0.219-1.329-0.555c-0.236-0.285-0.371-0.606-0.371-1.16v-21.65c0-0.555,0.135-0.876,0.371-1.161
					c0.286-0.337,0.689-0.555,1.329-0.555h1.564c0.639,0,1.043,0.218,1.329,0.555c0.235,0.286,0.369,0.606,0.369,1.161v15.644h0.085
					c0,0,8.679-15.375,9.033-15.947c0.488-0.807,1.311-1.412,2.489-1.412h2.675c0.639,0,1.043,0.218,1.329,0.555
					c0.235,0.286,0.37,0.606,0.37,1.161v19.53h35.14c0.354,0,0.622,0.1,0.825,0.268c0.218,0.203,0.32,0.472,0.32,0.875v1.48
					c0,0.404-0.101,0.673-0.32,0.875c-0.203,0.168-0.471,0.269-0.825,0.269H51.836C51.197,179.288,50.793,179.069,50.507,178.733
					 M65.848,172.947c-5.838,0-9.118-4.56-9.118-9.371c0-5.13,3.517-9.64,9.151-9.64c2.81,0,5.568,1.06,7.149,2.928
					c0.69,0.807,1.246,1.934,1.246,2.623c0,0.236-0.051,0.437-0.184,0.589c-0.135,0.169-0.338,0.269-0.691,0.269h-2.708
					c-0.54,0-0.908-0.201-1.178-0.605c-0.79-1.162-1.934-1.767-3.616-1.767c-2.524,0-4.154,1.918-4.272,4.021h11.709
					c0.52,0,0.89,0.118,1.143,0.369c0.286,0.269,0.421,0.657,0.421,1.38c0,2.203-0.69,4.49-2.136,6.241
					C71.282,171.752,69.028,172.947,65.848,172.947 M83.897,172.947c-4.608,0-7.636-2.187-7.636-5.686
					c0-1.245,0.454-2.255,1.195-3.044c0.858-0.927,2.085-1.566,3.869-2.02l3.851-0.974c1.059-0.269,2.002-0.589,2.002-1.515
					c0-1.43-1.514-1.917-3.129-1.917c-0.791,0-1.615,0.151-2.288,0.487c-0.471,0.237-0.874,0.572-1.16,1.026
					c-0.252,0.387-0.336,0.673-0.723,0.892c-0.236,0.134-0.523,0.151-0.908,0.151h-2.086c-0.454,0-0.672-0.136-0.824-0.32
					c-0.151-0.185-0.203-0.454-0.203-0.724c0-0.672,0.236-1.514,0.792-2.27c1.277-1.715,3.952-3.096,7.367-3.096
					c3.365,0,8.025,1.397,8.025,5.906c0,1.16-0.338,2.153-0.959,2.96c-0.791,1.026-1.918,1.732-3.836,2.22L83.428,166
					c-1.582,0.403-2.322,0.69-2.322,1.665c0,0.942,0.842,1.699,2.792,1.699c1.144,0,2.187-0.253,2.862-0.959
					c0.554-0.589,0.453-0.892,0.891-1.127c0.269-0.135,0.571-0.135,1.044-0.135h1.9c0.303,0,0.522,0.05,0.689,0.236
					c0.136,0.15,0.22,0.386,0.22,0.774c0,0.875-0.573,2.001-1.58,2.86C88.575,172.173,86.455,172.947,83.897,172.947
					 M94.378,172.307h-0.942c-0.353,0-0.622-0.1-0.823-0.268c-0.219-0.203-0.32-0.472-0.32-0.875v-1.161
					c0-0.404,0.101-0.672,0.32-0.875c0.202-0.169,0.471-0.27,0.823-0.27h0.942v-8.393c0-2.153,0.588-3.499,1.682-4.577
					c1.009-0.992,2.322-1.614,4.609-1.614h1.43c0.354,0,0.622,0.1,0.825,0.268c0.218,0.203,0.353,0.472,0.353,0.875v1.464
					c0,0.404-0.135,0.672-0.353,0.875c-0.203,0.168-0.471,0.269-0.825,0.269h-0.202c-0.908,0-1.53,0.235-1.951,0.639
					c-0.504,0.471-0.757,1.194-0.757,2.136v8.057h3.062c0.353,0,0.622,0.101,0.824,0.27c0.218,0.202,0.319,0.471,0.319,0.875v1.161
					c0,0.403-0.101,0.672-0.319,0.875c-0.202,0.168-0.471,0.268-0.824,0.268h-3.046v5.484c0,0.438-0.135,0.757-0.336,1.009
					c-0.253,0.303-0.605,0.488-1.126,0.488h-1.902c-0.522,0-0.875-0.186-1.128-0.488c-0.202-0.252-0.336-0.571-0.336-1.009
					L94.378,172.307L94.378,172.307z M104.673,155.772c0-0.438,0.134-0.758,0.337-1.01c0.251-0.303,0.605-0.488,1.126-0.488h2.001
					c0.523,0,0.875,0.185,1.128,0.488c0.202,0.253,0.337,0.572,0.337,1.01v22.018c0,0.437-0.135,0.757-0.337,1.01
					c-0.253,0.303-0.605,0.488-1.128,0.488h-2.001c-0.521,0-0.875-0.186-1.126-0.488c-0.203-0.253-0.337-0.572-0.337-1.01V155.772z
					 M61.659,165.579c0.218,2.07,1.8,3.617,4.206,3.617c2.355,0,3.986-1.547,4.206-3.617H61.659z M127.819,175.52
					c0.353,0,0.622,0.1,0.824,0.268c0.219,0.203,0.32,0.472,0.32,0.875v1.565c0,0.606-0.118,0.908-0.32,1.127
					c-0.185,0.203-0.487,0.319-0.824,0.319c-0.269,0-0.538-0.033-0.992-0.083l-13.424-1.329c-0.386-0.033-0.571-0.151-0.706-0.303
					c-0.151-0.168-0.219-0.387-0.219-0.69v-0.874c0-0.337,0.068-0.489,0.186-0.623c0.15-0.168,0.369-0.252,0.672-0.252H127.819
					L127.819,175.52z M120.4,172.947c-5.836,0-9.117-4.56-9.117-9.371c0-5.13,3.516-9.64,9.151-9.64c2.809,0,5.568,1.06,7.148,2.928
					c0.691,0.807,1.246,1.934,1.246,2.623c0,0.236-0.052,0.437-0.186,0.589c-0.133,0.169-0.336,0.269-0.689,0.269h-2.708
					c-0.539,0-0.908-0.201-1.178-0.605c-0.791-1.162-1.934-1.767-3.616-1.767c-2.524,0-4.156,1.918-4.273,4.021h11.742
					c0.521,0,0.891,0.118,1.143,0.369c0.287,0.269,0.421,0.657,0.421,1.38c0,2.203-0.69,4.49-2.136,6.241
					C125.868,171.752,123.58,172.947,120.4,172.947 M116.212,165.579c0.22,2.07,1.8,3.617,4.205,3.617
					c2.356,0,3.986-1.547,4.206-3.617H116.212z"/>
			</g>
			<g id="g15914" transform="translate(471.0004,695.3475)">
				<path id="path15916" fill="#939CA1" d="M44.808,178.183c-4.354,6.496-8.181,8.684-9.258,9.714
					c-1.182,1.136-2.083,2.423-2.657,3.043c-1.275,1.393-2.926,3.114-5.642,3.114c-2.621,0-4.353-1.708-4.916-3.184
					c-0.163-0.421-0.292-0.936-0.408-1.123c-0.257-0.422-1.416-2.4-1.897-3.184h2.166l-1.054-1.99
					c1.229,0.27,2.106,0.468,3.277,0.468c1.041,0,1.79-0.247,2.118-0.901c0.61-1.219,0.61-4.904,1.639-7.679
					c0.959-2.608,3.301-5.16,5.934-7.115c0.034-0.023,0.07-0.034,0.117-0.034c0.128,0,0.211,0.093,0.211,0.187
					c0,0.07-0.024,0.116-0.082,0.175c-2.2,2.201-3.991,4.635-4.95,7.302c-0.949,2.599-0.797,6.251-1.627,7.878
					c-0.551,1.077-1.72,1.356-2.797,1.356c-0.865,0-1.674-0.175-2.048-0.256l0.947,1.603h-1.603c0.34,0.596,0.69,1.147,0.866,1.475
					c0.151,0.281,0.211,0.632,0.398,1.111c0.608,1.534,1.954,2.506,3.709,2.506c2.201,0,3.488-1.416,4.764-2.832
					c0.585-0.656,1.545-2.025,2.657-3.043c0.76-0.702,2.212-1.487,4.447-3.793c1.287-1.334,2.785-3.066,4.365-5.383
					c5.654-8.274,9.363-15.565,11.435-21.254l-0.035-0.024c-5.933,4.026-11.073,7.83-15.215,12.523
					c-2.938,3.336-5.489,7.198-7.714,12.126c-0.153,0.328-0.28,0.632-0.421,0.948c-0.058,0.129-0.117,0.164-0.211,0.164
					c-0.117,0-0.199-0.082-0.199-0.199c0-0.129,0.059-0.41,0.187-0.972c1.183-5.103,4.46-9.679,7.959-13.483
					c3.488-3.781,7.431-7.035,10.673-9.399l2.529-7.233c0.058-0.176,0.128-0.363,0.128-0.538c0-0.129-0.035-0.234-0.117-0.304
					c-0.07-0.07-0.163-0.106-0.374-0.106h-0.76c-0.328,0-0.458,0.047-0.575,0.141c-0.117,0.094-0.198,0.235-0.257,0.398
					c-0.222,0.68-1.557,4.484-1.813,5.256c-0.048,0.14-0.13,0.187-0.223,0.187c-0.117,0-0.199-0.094-0.199-0.199
					c0-0.094,0.034-0.199,0.094-0.527c0.338-1.732,0.737-3.675,0.9-4.413c0.071-0.339,0.152-0.656,0.152-0.889
					c0-0.21-0.046-0.328-0.221-0.503l-0.785-0.796c-0.187-0.187-0.294-0.234-0.445-0.234c-0.187,0-0.34,0.128-0.41,0.457
					c-0.889,4.156-2.235,9.304-2.587,10.733c-0.082,0.314-0.141,0.491-0.328,0.491c-0.163,0-0.221-0.118-0.221-0.258
					c0-0.105,0.023-0.234,0.034-0.328c0.211-1.474,1.066-6.846,1.99-11.75c0.164-0.843,0.48-1.31,1.206-1.31
					c0.328,0,0.643,0.129,0.936,0.409c0.48,0.48,0.62,0.608,1.195,1.17c0.409,0.399,0.69,0.561,1.393,0.561h1.732
					c0.41,0,0.632,0.105,0.831,0.294c0.188,0.176,0.304,0.421,0.304,0.773c0,0.362-0.093,0.654-0.222,1.018
					c-0.444,1.193-1.872,5.232-2.294,6.367l0.035,0.023c1.463-1.111,3.593-2.528,4.53-2.528c0.292,0,0.468,0.129,0.468,0.586
					C56.571,157.126,52.989,165.987,44.808,178.183"/>
			</g>
			<g id="g15918" transform="translate(437.2935,706.7568)">
				<path id="path15920" fill="#939CA1" d="M38.335,180.374c0.246,0.539,0.784,0.913,1.428,0.913c0.877,0,1.579-0.68,1.579-1.581
					c0-0.526-0.245-0.984-0.632-1.264c0.082-0.305,0.141-0.574,0.141-0.831c0-0.983-0.585-1.674-1.661-2.037
					c-0.141-0.596-0.398-1.135-0.82-1.533c-0.702-0.678-1.416-0.678-1.416-0.96c0-0.152,0.106-0.245,0.398-0.245
					c1.299,0,2.575,0.725,2.727,1.931c1.241,0.421,1.989,1.674,1.989,2.668c0,0.258-0.024,0.48-0.128,0.69
					c0.34,0.329,0.738,0.89,0.738,1.721c0,0.726-0.317,1.463-0.879,2.002c-0.491,0.48-1.183,0.796-1.989,0.796
					c-1.171,0-1.931-0.633-2.364-1.253c-1.277,0-2.927-1.416-2.927-3.441h-0.175c-0.118,0.702-0.843,1.172-1.452,1.206
					c-0.491,1.474-1.603,2.738-3.43,2.738c-0.21,0-0.467-0.012-0.69-0.046c-0.538,0.492-1.135,0.796-1.966,0.796
					c-1.592,0-2.892-1.277-2.892-2.891c0-1.007,0.457-1.698,1.323-2.307c0,0-0.012-0.129-0.012-0.187
					c0-1.287,1.404-3.301,3.487-3.301c0-0.327,0.41-0.772,0.867-0.853v-0.164h-0.175c-2.867,0-4.084-1.382-4.084-2.305
					c-0.855-0.352-1.406-1.299-1.406-2.177c0-1.744,1.277-2.985,2.962-2.985c0.562,0,1.135,0.222,1.533,0.527
					c0.292-0.105,0.667-0.163,1.052-0.163c0.808,0,1.71,0.28,2.341,1.205c0.094-0.012,0.175-0.012,0.269-0.012
					c1.03,0,1.92,0.679,2.388,1.568c0.117,0.222,0.163,0.397,0.163,0.527c0,0.127-0.059,0.234-0.187,0.234
					c-0.163,0-0.187-0.153-0.48-0.422c-0.655-0.597-1.663-0.819-2.692-0.819c-0.503-0.738-1.123-1.124-1.837-1.124
					c-0.527,0-0.936,0.141-1.358,0.422c-0.34-0.374-0.76-0.527-1.171-0.527c-0.924,0-1.579,0.644-1.579,1.581
					c0,0.656,0.421,1.24,1.006,1.463c0.105,1.159,1.346,1.943,2.89,1.943c0.199,0,0.398-0.012,0.609-0.036
					c0.234,0.374,0.795,0.773,1.591,0.879c0.164,0.023,0.292,0.035,0.386,0.081c0.094,0.047,0.141,0.141,0.141,0.246
					c0,0.093-0.036,0.175-0.129,0.234c-0.082,0.046-0.222,0.069-0.386,0.105c-0.738,0.141-1.616,0.597-2.06,1.709
					c-1.768,0-3.067,1.416-3.067,3.007v0.105c-0.585,0.235-0.982,0.797-0.982,1.464c0,0.877,0.689,1.579,1.567,1.579
					c0.527,0,0.984-0.257,1.277-0.644c0.245,0.07,0.525,0.094,0.795,0.094c1.311,0,2.715-0.831,2.985-2.446
					c1.686-0.153,2.083-1.581,2.189-2.178c0.058-0.304,0.105-0.561,0.304-0.561c0.211,0,0.257,0.235,0.328,0.551
					c0.128,0.596,0.352,1.076,0.796,1.451C35.561,179.052,36.708,180.374,38.335,180.374"/>
			</g>
			<g id="g15922" transform="translate(440.1505,699.0592)">
				<path id="path15924" fill="#939CA1" d="M38.883,178.896c-0.55-0.784-0.948-1.17-2.2-2.645c-1.65-1.955-2.516-3.536-3.957-7.046
					c0.235,0.024,0.575,0.046,0.949,0.046c0.187,0,0.338,0,0.585-0.011l0.175,0.374c0.808,1.732,1.895,4.073,3.417,5.876l0.527,0.62
					c1.567,1.837,2.539,2.926,3.148,5.431c0.211,0.889,0.386,1.685,0.983,2.259c0.538,0.515,1.217,0.737,1.908,0.737
					c0.585,0,1.019-0.141,1.651-0.409c0.574-0.245,0.783-0.293,1.392-0.293c0.211,0,0.362,0.012,0.503,0.024l-0.819-1.1l1.112-0.784
					c-1.394-0.409-2.131-1.756-2.377-2.376c-0.046-0.129-0.069-0.211-0.069-0.293c0-0.094,0.046-0.187,0.187-0.187
					c0.151,0,0.268,0.117,0.467,0.351c0.679,0.819,1.218,1.382,3.722,2.165l-1.767,1.335l1.334,1.953h-1.252
					c-0.796,0-1.323,0.012-2.013,0.328c-0.937,0.433-1.416,0.62-2.247,0.62c-1.018,0-1.943-0.362-2.703-1.065
					c-0.879-0.807-1.149-1.884-1.463-3.067C39.831,180.827,39.539,179.819,38.883,178.896"/>
			</g>
			<g id="g15926" transform="translate(442.4087,692.3728)">
				<path id="path15928" fill="#939CA1" d="M39.317,177.611c-0.667-0.901-1.581-2.082-2.283-3.335
					c0.223-0.106,0.961-0.504,1.219-0.643c0.807,1.217,1.931,2.714,2.667,3.85c0.668,1.03,0.937,1.475,0.983,2.856
					c0.013,0.233,0.013,0.457,0.035,0.678c0.058,0.714,0.247,1.44,0.925,2.106c0.503,0.504,1.229,0.761,1.955,0.761
					c0.702,0,1.11-0.198,1.719-0.198c0.433,0,0.749,0.105,1.03,0.21l0.222,0.082l-0.539-1.289l1.263-0.514
					c-0.807-0.503-2.575-2.669-2.575-5.232c0-0.925,0.141-1.779,0.34-2.539c0.024-0.082,0.07-0.164,0.199-0.164
					c0.117,0,0.199,0.07,0.211,0.199l0.012,0.269c0.035,0.784,0.093,2.024,0.409,3.137c0.527,1.872,1.943,3.628,3.359,4.471
					l-2.013,0.877l0.866,2.118l-0.948-0.199c-0.573-0.117-0.995-0.222-1.498-0.222c-0.328,0-0.702,0.046-1.147,0.152
					c-0.34,0.081-0.704,0.151-1.217,0.151c-0.925,0-1.921-0.35-2.599-1.006c-1.241-1.183-1.311-2.458-1.394-3.594
					C40.418,179.086,40.136,178.712,39.317,177.611"/>
			</g>
			<g id="g15930" transform="translate(467.6031,691.774)">
				<path id="path15932" fill="#939CA1" d="M44.156,177.497c-0.082,0.105-0.152,0.153-0.245,0.153c-0.141,0-0.211-0.094-0.211-0.199
					c0-0.165,0.117-0.364,0.409-0.856c0.889-1.509,1.99-3.03,3.348-4.46c1.463-1.555,3.183-3.006,5.02-4.305l0.574-0.399
					c0.082-0.06,0.141-0.094,0.211-0.094c0.117,0,0.199,0.117,0.199,0.211c0,0.058-0.024,0.118-0.094,0.176
					c-1.708,1.555-3.546,3.452-5.266,5.277C46.753,174.441,45.372,175.963,44.156,177.497"/>
			</g>
			<g id="g15934" transform="translate(436.0071,696.2215)">
				<path id="path15936" fill="#939CA1" d="M38.088,178.351c0.175,0.292,0.702,1.006,0.913,1.229
					c-0.901,1.825-2.376,3.569-3.02,4.261l-0.539-0.527C36.064,182.412,37.104,180.668,38.088,178.351"/>
			</g>
			<g id="g15938" transform="translate(428.8102,705.0874)">
				<path id="path15940" fill="#939CA1" d="M36.706,180.054c-0.106,0.094-0.129,0.153-0.129,0.223c0,0.081,0.059,0.175,0.187,0.175
					c0.047,0,0.093-0.012,0.153-0.036c0.866-0.35,1.604-0.761,2.259-1.264c0.549-0.421,1.088-0.937,1.614-1.557l-0.491-0.561
					C39.691,177.538,37.723,179.187,36.706,180.054"/>
			</g>
			<g id="g15942" transform="translate(435.7715,701.7983)">
				<path id="path15944" fill="#939CA1" d="M38.042,179.422l-0.632,0.386c0.409,0.971,0.914,1.861,1.51,2.529
					c0.422,0.479,0.82,0.866,1.265,1.251c0.105,0.082,0.163,0.153,0.268,0.153c0.118,0,0.2-0.094,0.2-0.187
					c0-0.046-0.024-0.105-0.071-0.175C39.869,182.266,38.475,180.065,38.042,179.422"/>
			</g>
			<g id="g15946" transform="translate(429.1147,697.2427)">
				<path id="path15948" fill="#939CA1" d="M36.764,178.547c-0.152-0.058-0.222-0.094-0.304-0.094c-0.128,0-0.189,0.106-0.189,0.188
					c0,0.081,0.036,0.128,0.118,0.199c1.439,1.123,2.703,1.568,4.447,1.861l0.21-0.703L36.764,178.547z"/>
			</g>
			<g id="g15950" transform="translate(454.2989,704.8614)">
				<path id="path15952" fill="#939CA1" d="M41.601,180.01c0,0.41,0.211,1.148,0.972,1.148c0.257,0,0.503-0.058,0.702-0.153
					c0.281-0.129,0.468-0.316,0.468-0.515c0-0.211-0.211-0.422-0.527-0.68c-0.328-0.268-0.749-0.515-1.088-0.515
					C41.718,179.296,41.601,179.683,41.601,180.01"/>
			</g>
			<g id="g15954" transform="translate(444.3332,701.9946)">
				<path id="path15956" fill="#939CA1" d="M39.687,179.459c0,0.503,0.304,1.054,0.889,1.054c0.257,0,0.561-0.105,0.784-0.317
					c0.128-0.117,0.187-0.244,0.187-0.374c0-0.281-0.27-0.549-0.585-0.736c-0.246-0.141-0.503-0.235-0.725-0.235
					C39.874,178.85,39.687,179.074,39.687,179.459"/>
			</g>
			<g id="g15958" transform="translate(446.6406,695.9366)">
				<path id="path15960" fill="#939CA1" d="M40.13,178.296c0,0.117,0.012,0.257,0.058,0.398c0.094,0.304,0.292,0.597,0.784,0.597
					c0.223,0,0.467-0.058,0.666-0.2c0.177-0.117,0.247-0.268,0.247-0.421c0-0.503-0.843-1.088-1.265-1.088
					C40.317,177.582,40.13,177.875,40.13,178.296"/>
			</g>
			<g id="g15962" transform="translate(442.7721,683.546)">
				<path id="path15964" fill="#939CA1" d="M39.387,175.917c-1.58,0-2.283,0.748-2.283,1.696c0,1.663,2.914,3.289,5.535,4.296
					l0.68-0.878c-1.615-0.642-4.868-2.026-4.868-3.218c0-0.421,0.245-0.725,1.227-0.725c1.71,0,3.548,0.832,5.244,1.663
					c0.129,0.059,0.281,0.117,0.422,0.117c0.221,0,0.362-0.071,0.526-0.304l0.281-0.386
					C44.174,177.086,41.704,175.917,39.387,175.917"/>
			</g>
			<g id="g15966" transform="translate(446.4247,683.1725)">
				<path id="path15968" fill="#939CA1" d="M40.089,175.845c-1.545-0.866-3.148-1.44-4.565-1.44c-1.581,0-2.985,0.68-4.155,2.447
					c-0.491,0.748-0.878,1.684-1.346,2.516c-0.562,0.983-1.17,1.51-2.235,1.51c-0.972,0-1.921-0.398-2.927-0.831l0.046-0.222
					c0.082-0.362,0.223-0.62,0.562-0.62c0.153,0,0.305,0.069,0.387,0.093c0.562,0.176,0.971,0.329,1.545,0.329
					c0.878,0,1.298-0.516,1.896-1.779l0.222-0.469c-0.609-0.211-2.037-0.315-3.102-0.315h-0.502l0.082-0.503
					c0.035-0.211,0.117-0.387,0.292-0.47c0.21-0.104,0.515-0.116,1.042-0.116c1.334,0,2.305,0.163,2.867,0.305
					c1.44-2.143,3.418-2.963,5.326-2.963c1.626,0,3.277,0.598,4.858,1.463L40.089,175.845z"/>
			</g>
			<g id="g15970" transform="translate(447.7597,682.7307)">
				<path id="path15972" fill="#939CA1" d="M40.345,175.76l-0.28,1.078c2.411,1.298,4.611,2.34,8.123,2.679
					c0.07-1.346-0.024-3.043,0.972-3.043c0.912,0,2.901,2.353,5.196,5.302c0.211-0.199,0.549-0.41,0.854-0.644l-0.585-0.761
					c-2.236-2.88-4.144-5.338-5.712-5.338c-1.463,0-2.014,1.721-2.036,3.009C44.641,177.819,42.533,177.071,40.345,175.76"/>
			</g>
			<g id="g15974" transform="translate(473.7398,702.4365)">
				<path id="path15976" fill="#939CA1" d="M45.334,179.544c-0.913,0-1.171,0.504-1.171,1.217c0,1.475,0.925,3.593,1.51,4.799
					h-1.417c-0.736-1.428-3.639-6.004-5.208-7.901l0.901-0.97c0.843,0.936,1.768,2.527,2.774,4.096h0.187
					c0-0.082-0.011-0.175-0.011-0.257c0-1.323,0.678-2.306,2.352-2.306c1.03,0,2.645,0.515,4.168,1.03
					c1.263,0.433,2.422,0.877,2.996,1.041v1.404c-0.656-0.198-1.99-0.713-3.371-1.193C47.593,180.001,46.165,179.544,45.334,179.544
					"/>
			</g>
			<g id="g15978" transform="translate(476.3611,698.8726)">
				<path id="path15980" fill="#939CA1" d="M45.837,178.86c1.405,0.596,3.921,1.603,5.373,2.13v1.428
					c-2.915-1.078-8.03-3.196-11.517-5.093c0.094-0.115,0.703-0.97,0.772-1.076c1.474,0.609,2.798,1.007,3.991,1.007
					c1.675,0,3.043,0,5.338,0.539v1.077c-1.287-0.235-2.657-0.515-3.546-0.515c-0.527,0-0.679,0.07-0.679,0.246
					C45.568,178.707,45.638,178.777,45.837,178.86"/>
			</g>
		</g>
	</g>
</g>
<g id="g15982" transform="matrix(2.1025538,0,0,-2.1025538,3.2464737,509.99979)">
	<path id="path15984" fill="#939CA1" d="M41.007,177.8l-0.562-1.078h5.982l-0.445,1.078H41.007z"/>
</g>
<g id="g15986" transform="matrix(2.1025538,0,0,-2.1025538,-945.43842,1967.8152)">
	<g>
		<g id="g15988">
			<g id="g15994" transform="translate(433.1302,687.9642)">
				<path id="path15996" fill="#939CA1" d="M37.536,176.765c0.632,0,1.147,0.211,1.639,0.408c0.467,0.189,0.936,0.376,1.568,0.376
					c1.499,0,3.347-0.725,4.975-1.417c0.094-0.035,0.199-0.058,0.304-0.058c0.259,0,0.458,0.117,0.585,0.362l0.211,0.386
					c-1.791,1.042-4.646,2.154-6.133,2.154c-0.678,0-1.171-0.176-1.638-0.363c-0.526-0.212-0.983-0.434-1.463-0.434
					c-1.182,0-4.213,1.171-4.213,2.306c0,1.334,4.822,1.849,5.348,1.849l0.479,1.089c-3.498,0-7.666-1.229-7.666-2.856
					c0-0.468,0.269-0.702,0.269-1.135c0-0.585-0.269-0.983-0.269-1.639c0-0.433,0.257-0.983,0.561-1.464
					c0.328-0.503,0.714-0.83,0.714-1.251c0-0.316-0.21-0.691-0.21-1.429c0-1.579,0.901-2.54,2.656-4.424l0.352-0.374
					c-1.451-0.563-4.156-1.733-4.788-2.002c-2.189-0.913-2.738-2.024-2.738-3.781c0-0.679,0-1.451,0.047-2.141h0.421
					c0.878,0,0.984,0.526,0.984,1.029c0,0.34-0.013,0.725-0.013,1.147c0.013,0.971,0.048,1.837,1.616,2.539
					c0.633,0.281,3.733,1.545,6.04,2.529c0.678,0.293,1.31,0.539,2.012,0.539c0.784,0,1.686-0.34,2.81-1.007
					c0.948-0.562,1.943-1.322,2.727-2.2l0.994,0.761c-0.855,1.006-2.036,1.907-3.218,2.609c-1.183,0.702-2.235,1.112-3.124,1.112
					c-0.386,0-0.703-0.071-0.972-0.141c-0.316-0.083-0.609-0.175-0.983-0.175c-0.433,0-0.797,0.105-1.323,0.713
					c-0.199,0.222-1.463,1.662-1.732,2.083c-0.128,0.199-0.362,0.597-0.362,1.065c0,0.199,0.034,0.433,0.152,0.644
					c1.088-0.843,2.435-1.358,4.072-1.557l-0.221,1.112c-2.353,0.62-4.858,2.692-4.858,4.026c0,0.281,0.07,0.48,0.177,0.726
					C34.235,177.642,36.377,176.765,37.536,176.765"/>
			</g>
			<g id="g15998" transform="translate(447.2593,687.7871)">
				<path id="path16000" fill="#939CA1" d="M40.249,176.731c1.474,1.042,2.995,1.159,4.225,1.159c0.738,0,1.603-0.105,2.516-0.222
					c0.738-0.094,1.404-0.165,2.201-0.165c1.603,0,3.218,0.586,3.921,0.891c0.199-0.247,0.539-0.575,0.808-0.808
					c-0.34-0.211-2.493-1.38-4.694-1.38c-0.972,0-1.896,0.116-2.693,0.222c-0.702,0.093-1.462,0.175-2.2,0.175
					c-0.807,0-2.434-0.234-3.441-0.713L40.249,176.731z"/>
			</g>
			<g id="g16002" transform="translate(465.4921,684.282)">
				<path id="path16004" fill="#939CA1" d="M43.75,176.058c-1.756-3.699-4.425-6.391-7.163-7.948
					c-1.299-0.737-2.47-1.216-4.997-1.216h-5.466c-1.954,0-3.183-0.258-4.143-0.503c-1.031-0.27-1.686-0.537-2.727-0.537
					c-1.545,0-2.973,0.761-3.663,1.485l1.287,1.019l-0.644,0.856c-0.374-0.271-4.95-3.653-5.911-4.413l-0.058,0.035
					c0.024,0.233,0.024,0.444,0.024,0.656c0,2.574-1.194,3.196-3.007,3.92l-1.229-0.724c2.493-0.832,3.113-1.499,3.113-3.359
					c0-1.476-0.527-2.06-1.288-2.506c-0.784-0.456-1.755-0.666-2.609-0.666c-0.363,0-0.527-0.072-0.656-0.199
					c-0.14-0.14-0.211-0.352-0.211-0.644v-0.41h0.293c1.568,0,3.019,0.246,4.611,1.498l5.185,4.05
					c0.737-0.843,2.599-2.013,4.798-2.013c1.241,0,2.037,0.306,3.184,0.597c0.889,0.224,1.756,0.423,3.652,0.423h5.489
					c2.81,0,4.168,0.585,5.665,1.426c3.254,1.826,6.028,4.916,7.597,8.463C44.464,175.602,44.078,175.836,43.75,176.058"/>
			</g>
			<g id="g16006" transform="translate(458.0988,680.5901)">
				<path id="path16008" fill="#939CA1" d="M42.33,175.349c1.416,2.271,2.68,4.284,5.781,5.923
					c-0.328,0.198-0.795,0.502-1.041,0.667c-1.205-0.526-2.398-1.58-3.417-2.645c-2.341-2.434-2.131-3.839-4.6-4.788
					c-0.621-0.234-1.382-0.491-2.353-0.712c-0.574,1.767-2.013,3.523-3.535,3.523c-1.053,0-2.271-0.55-3.675-1.17
					c-1.65-0.726-3.16-1.557-3.64-1.873l0.644-0.866c0.491,0.27,1.908,0.973,3.323,1.581c1.229,0.527,2.341,0.96,3.09,0.96
					c1.205,0,1.989-1.37,2.424-2.469c-1.581-0.376-4.179-0.469-4.963-0.469c-0.364,0-0.492-0.059-0.621-0.164
					c-0.117-0.105-0.211-0.292-0.269-0.549l-0.093-0.398h0.841c4.379,0,8.51,0.69,11.166,2.306c0.375-0.106,0.703-0.175,1.124-0.175
					c1.521,0,3.09,0.83,4.073,1.591c0.35,0.269,0.433,0.516,0.433,0.784c0,0.129-0.012,0.246-0.024,0.364l-0.046,0.456
					c-1.404-1.111-2.575-1.943-4.026-1.943C42.67,175.279,42.483,175.303,42.33,175.349"/>
			</g>
			<g id="g16010" transform="translate(430.0615,650.2685)">
			</g>
			<g id="g16014" transform="translate(439.0743,650.1949)">
			</g>
			<g id="g16018" transform="translate(447.4737,650.1949)">
			</g>
			<g id="g16022" transform="translate(458.0938,650.3558)">
			</g>
		</g>
	</g>
</g>
</svg>
