<?xml version="1.0" encoding="utf-8"?>
<!-- Generator: Adobe Illustrator 21.0.0, SVG Export Plug-In . SVG Version: 6.00 Build 0)  -->
<svg version="1.1" id="logo" xmlns="http://www.w3.org/2000/svg" xmlns:xlink="http://www.w3.org/1999/xlink" x="0px" y="0px"
	 viewBox="0 0 400 300" enable-background="new 0 0 400 300" xml:space="preserve">
<path fill="#28458E" d="M119.29395,154.32733H90.18622v39.70099h14.10333v-12.34625h15.1062
	c10.00159,0,13.60254-5.8916,13.60254-13.50897C132.99829,159.33087,129.29553,154.32733,119.29395,154.32733z M113.39209,172.00842
	h-9.10321v-8.34216h9.10321c3.55176,0,4.9024,1.22559,4.9024,4.22742C118.29449,170.78418,116.94318,172.00842,113.39209,172.00842z
	 M137.64929,154.32733h37.95752v9.67297h-23.85419v5.33832h22.15649v9.67706h-22.15649v5.33759h23.85419v9.67505h-37.95752
	V154.32733z M210.61646,154.32733h-29.10638v39.70099h14.10333v-12.34625h15.10345c10.00433,0,13.60602-5.8916,13.60602-13.50897
	C224.32288,159.33087,220.62006,154.32733,210.61646,154.32733z M204.71588,172.00842h-9.10248v-8.34216h9.10248
	c3.55115,0,4.90247,1.22559,4.90247,4.22742C209.61835,170.78418,208.26703,172.00842,204.71588,172.00842z M273.43445,181.18066
	c0,9.67841-7.10223,14.23785-22.95721,14.23785c-10.85211,0-22.70575-1.6676-22.75494-13.34497h17.00403
	c0.04785,1.33289,0.50006,2.22235,1.50159,2.83447c1.0473,0.55676,2.59882,0.83551,4.79858,0.83551
	c4.40033,0,5.60266-1.33557,5.60266-3.22662c0-1.16754-0.65173-2.33435-2.54822-2.66638l-16.10706-2.67053
	c-6.9007-1.16956-9.74945-5.61768-9.74945-11.17664c0-10.28851,9.05267-13.06622,20.65283-13.06622
	c15.9021,0,22.45502,4.6134,22.95581,13.01093h-16.40491c0-1.61298-0.85059-2.61584-2.14856-3.17126
	c-1.25092-0.61011-2.85016-0.83209-4.40234-0.83209c-4.20081,0-5.64978,1.16614-5.64978,2.83582
	c0,1.11011,0.44812,1.83563,1.84863,2.05701l16.85376,2.77911C269.03278,170.78418,273.43445,174.45416,273.43445,181.18066z
	 M278.03351,154.32733h14.10266v39.70099h-14.10266V154.32733z M311.54224,174.17816c0,8.06274,3.55176,11.22992,8.70288,11.22992
	c4.45221,0,7.10291-2.05701,8.25336-6.8385h15.90479v0.00067c-0.90039,5.22693-2.50311,9.453-6.00433,12.34344
	c-3.44867,2.89191-8.85181,4.50482-17.45221,4.50482c-8.55194,0-24.40619-0.66882-24.40619-21.23969
	c0-20.57495,15.85425-21.24243,24.40619-21.24243c8.49994,0,21.60449,1.22223,23.45654,16.96033h-15.90411
	c-0.40039-2.83856-2.10352-6.95258-7.55243-6.95258C315.19238,162.94415,311.54224,166.11334,311.54224,174.17816z
	 M372.26013,152.93713c-8.55463,0-24.40894,0.66675-24.40894,21.24237c0,20.57019,15.85425,21.23975,24.40894,21.23975
	c8.55255,0,24.40686-0.66888,24.40686-21.23975C396.66699,153.60455,380.81268,152.93713,372.26013,152.93713z M372.2608,185.40942
	c-5.75226-0.00067-9.40448-3.16785-9.40448-11.22992c0-8.06543,3.65222-11.23401,9.40448-11.23401
	c5.75018,0,9.40308,3.16925,9.40308,11.23401C381.66388,182.24225,378.01099,185.40942,372.2608,185.40942z"/>
<path fill="#28458E" d="M68.87548,154.72086c0.91067-19.04741-15.51542-40.49751-37.90899-43.14889l0.03826-0.26028
	c22.07657,0,39.00069,20.43764,39.00069,36.56109c-0.02117,3.35641-0.28625,5.43597-0.759,6.94577L68.87548,154.72086
	L68.87548,154.72086z M67.53784,157.142c-1.46881,1.79469-3.31609,3.60167-5.48038,5.31709
	c-3.98151-22.89909-20.80861-42.92275-32.7053-48.76726l-0.25482,0.17762c11.96432,9.81918,26.23433,28.88981,31.7837,49.48801
	c-2.65479,1.95659-5.72358,3.75742-9.11414,5.21941c-11.29003-12.87498-21.8156-37.70541-25.20753-53.462l-0.345,0.10384
	c0.07651,15.29475,10.93547,41.25925,24.17799,53.9286c-2.93899,1.15933-6.09932,2.06316-9.41815,2.60217
	c-12.69394-5.02879-21.72952-21.13516-21.72952-37.63435c0-10.77082,3.28399-17.43376,3.91933-18.79736l-0.27053-0.10726
	c-0.76856,1.16276-5.57943,7.82227-5.57943,19.45048c0,18.64981,9.19749,32.90479,21.40843,37.39388
	c-4.17757,0.45432-8.57376,0.317-13.08403-0.61417l-0.09086,0.28419c1.30622,0.48096,5.73793,2.34123,12.49856,2.34123
	c15.29135,0,25.62836-9.50082,29.78954-16.7226L67.53784,157.142L67.53784,157.142z"/>
<path fill="#0096D6" d="M36.51723,104.58179c-11.59199,0-25.1843,8.36608-25.1843,16.01346
	c0,2.95812,2.70603,5.45715,8.30664,5.45715c13.00137,0,25.08046-8.93242,25.08046-15.87819
	C44.72003,106.51926,41.20991,104.58179,36.51723,104.58179L36.51723,104.58179z M41.14501,109.95832
	c0,5.85475-11.2429,13.01162-20.64124,13.01162c-4.15229,0-6.39582-1.63414-6.39582-4.3306
	c0-5.93878,11.37065-12.97404,20.18625-12.97404C40.04169,105.66529,41.14501,108.58994,41.14501,109.95832L41.14501,109.95832z"/>
<path fill="#EB7B30" d="M6.71471,124.13611c-0.32587,0.56361-1.63072,3.11866-1.63072,5.73656
	c0,4.85527,4.90583,9.36282,13.92911,9.36282c17.35862,0,37.4137-12.7773,37.4137-24.63777
	c0-5.32393-5.03973-8.21851-8.53892-8.81697l-0.06558,0.20769c1.08829,0.34431,5.07525,2.19775,5.07525,6.9403
	c0,9.45026-17.70703,22.32662-35.34506,22.32662c-6.75243,0-11.00652-3.33319-11.00652-8.18846
	c0-1.53576,0.31972-2.54753,0.40444-2.84061L6.71471,124.13611L6.71471,124.13611z"/>
<path fill="#00984A" d="M63.58366,115.48447c0.47617,0.3614,3.33523,2.74429,3.33523,7.25047
	c0,15.36445-24.07347,30.47271-45.3562,30.47271c-12.69189,0-18.47764-6.26671-18.22146-11.83112h0.2275
	c0.49735,2.88982,4.61822,8.0607,15.72653,8.0607c21.30938,0,45.10207-15.63293,45.10207-29.32977
	c0-2.34941-0.63808-3.81344-0.99879-4.4645L63.58366,115.48447L63.58366,115.48447z"/>
<path fill="#DF002C" d="M71.63001,129.82826c0.09975,0.32724,0.61827,1.7981,0.61827,4.10175
	c0,17.09149-24.36245,31.72359-45.55091,31.72359c-10.90541,0-16.6003-5.29729-17.80268-7.44858l0.19402-0.14346
	c3.01755,2.63907,8.96111,4.64417,15.89732,4.64417c18.71334,0,46.63646-14.23723,46.38711-32.81529L71.63001,129.82826
	L71.63001,129.82826z"/>
</svg>
